<?xml version="1.0" encoding="UTF-8" standalone="no"?>
<!DOCTYPE svg PUBLIC "-//W3C//DTD SVG 1.1//EN"
 "http://www.w3.org/Graphics/SVG/1.1/DTD/svg11.dtd">
<!-- Generated by graphviz version 2.43.0 (0)
 -->
<!-- Title: cluster0matrix_ops.py Pages: 1 -->
<svg width="2035pt" height="1245pt"
 viewBox="0.00 0.00 2034.50 1245.00" xmlns="http://www.w3.org/2000/svg" xmlns:xlink="http://www.w3.org/1999/xlink">
<g id="graph0" class="graph" transform="scale(1 1) rotate(0) translate(4 1241)">
<title>cluster0matrix_ops.py</title>
<polygon fill="white" stroke="transparent" points="-4,4 -4,-1241 2030.5,-1241 2030.5,4 -4,4"/>
<text text-anchor="middle" x="1013.25" y="-7.8" font-family="DejaVu Sans Mono" font-size="14.00">matrix_ops.py</text>
<g id="clust1" class="cluster">
<title>cluster_1</title>
<polygon fill="purple" stroke="purple" points="120.5,-1063 120.5,-1115 242.5,-1115 242.5,-1063 120.5,-1063"/>
</g>
<g id="clust2" class="cluster">
<title>cluster0determinant</title>
<polygon fill="none" stroke="black" points="371.5,-31 371.5,-1229 1629.5,-1229 1629.5,-31 371.5,-31"/>
<text text-anchor="middle" x="1000.5" y="-1213.8" font-family="DejaVu Sans Mono" font-size="14.00">determinant</text>
</g>
<g id="clust3" class="cluster">
<title>cluster_5</title>
<polygon fill="purple" stroke="purple" points="545.5,-964.5 545.5,-1016.5 687.5,-1016.5 687.5,-964.5 545.5,-964.5"/>
</g>
<g id="clust4" class="cluster">
<title>cluster_10</title>
<polygon fill="purple" stroke="purple" points="1186.5,-866 1186.5,-918 1256.5,-918 1256.5,-866 1186.5,-866"/>
</g>
<g id="clust5" class="cluster">
<title>cluster_13</title>
<polygon fill="purple" stroke="purple" points="1073.5,-783 1073.5,-835 1147.5,-835 1147.5,-783 1073.5,-783"/>
</g>
<g id="clust6" class="cluster">
<title>cluster_23</title>
<polygon fill="purple" stroke="purple" points="379.5,-416 379.5,-468 453.5,-468 453.5,-416 379.5,-416"/>
</g>
<g id="clust7" class="cluster">
<title>cluster_27</title>
<polygon fill="purple" stroke="purple" points="933.5,-258 933.5,-385 1003.5,-385 1003.5,-258 933.5,-258"/>
</g>
<g id="clust8" class="cluster">
<title>cluster_24</title>
<polygon fill="purple" stroke="purple" points="1011.5,-258 1011.5,-310 1085.5,-310 1085.5,-258 1011.5,-258"/>
</g>
<g id="clust9" class="cluster">
<title>cluster_32</title>
<polygon fill="purple" stroke="purple" points="1242.5,-175 1242.5,-227 1316.5,-227 1316.5,-175 1242.5,-175"/>
</g>
<g id="clust10" class="cluster">
<title>cluster_36</title>
<polygon fill="purple" stroke="purple" points="949.5,-39 949.5,-91 1023.5,-91 1023.5,-39 949.5,-39"/>
</g>
<g id="clust11" class="cluster">
<title>cluster_16</title>
<polygon fill="purple" stroke="purple" points="1307.5,-700 1307.5,-752 1381.5,-752 1381.5,-700 1307.5,-700"/>
</g>
<g id="clust12" class="cluster">
<title>cluster_KEY</title>
<polygon fill="none" stroke="black" points="1637.5,-964.5 1637.5,-1229 2018.5,-1229 2018.5,-964.5 1637.5,-964.5"/>
<text text-anchor="middle" x="1828" y="-1213.8" font-family="DejaVu Sans Mono" font-size="14.00">KEY</text>
</g>
<!-- 1 -->
<g id="node1" class="node">
<title>1</title>
<polygon fill="#fffb81" stroke="black" points="363,-1214 0,-1214 0,-1146 363,-1146 363,-1214"/>
<text text-anchor="start" x="8" y="-1198.8" font-family="DejaVu Sans Mono" font-size="14.00">import numpy as np</text>
<text text-anchor="start" x="8" y="-1183.8" font-family="DejaVu Sans Mono" font-size="14.00">def determinant(matrix):...</text>
<text text-anchor="start" x="8" y="-1168.8" font-family="DejaVu Sans Mono" font-size="14.00">matrix = [[1, 2, 3], [4, 5, 6], [7, 8, 9]]</text>
<text text-anchor="middle" x="181.5" y="-1153.8" font-family="DejaVu Sans Mono" font-size="14.00">determinant(matrix)</text>
</g>
<!-- 45 -->
<g id="node2" class="node">
<title>45</title>
<polygon fill="#e552ff" stroke="#e552ff" points="235,-1107 140,-1107 140,-1111 128,-1111 128,-1071 235,-1071 235,-1107"/>
<polyline fill="none" stroke="#e552ff" points="128,-1107 140,-1107 "/>
<text text-anchor="middle" x="181.5" y="-1085.3" font-family="DejaVu Sans Mono" font-size="14.00">determinant</text>
</g>
<!-- 1&#45;&gt;45 -->
<g id="edge1" class="edge">
<title>1&#45;&gt;45</title>
<path fill="none" stroke="black" stroke-dasharray="5,2" d="M181.5,-1145.86C181.5,-1136.58 181.5,-1126.6 181.5,-1117.68"/>
<polygon fill="black" stroke="black" points="185,-1117.44 181.5,-1107.44 178,-1117.44 185,-1117.44"/>
<text text-anchor="middle" x="202.5" y="-1126.8" font-family="DejaVu Sans Mono" font-size="14.00">calls</text>
</g>
<!-- 3 -->
<g id="node3" class="node">
<title>3</title>
<polygon fill="#ff6752" stroke="black" points="564.5,-1198 412.68,-1180 564.5,-1162 716.32,-1180 564.5,-1198"/>
<text text-anchor="middle" x="564.5" y="-1176.3" font-family="DejaVu Sans Mono" font-size="14.00">if matrix == [[]]:</text>
</g>
<!-- 4 -->
<g id="node4" class="node">
<title>4</title>
<polygon fill="#98fb98" stroke="black" points="560.69,-1107 434.72,-1107 402.31,-1071 528.28,-1071 560.69,-1107"/>
<text text-anchor="middle" x="481.5" y="-1085.3" font-family="DejaVu Sans Mono" font-size="14.00">return 1</text>
</g>
<!-- 3&#45;&gt;4 -->
<g id="edge2" class="edge">
<title>3&#45;&gt;4</title>
<path fill="none" stroke="green" d="M550.04,-1163.5C537.54,-1150.1 519.25,-1130.48 504.7,-1114.88"/>
<polygon fill="green" stroke="green" points="506.87,-1112.07 497.49,-1107.15 501.75,-1116.85 506.87,-1112.07"/>
<text text-anchor="middle" x="582.5" y="-1126.8" font-family="DejaVu Sans Mono" font-size="14.00">matrix == [[]]</text>
</g>
<!-- 5 -->
<g id="node5" class="node">
<title>5</title>
<polygon fill="#ff6752" stroke="black" points="844.5,-1107 578.73,-1089 844.5,-1071 1110.27,-1089 844.5,-1107"/>
<text text-anchor="middle" x="844.5" y="-1085.3" font-family="DejaVu Sans Mono" font-size="14.00">if len(matrix[0]) != len(matrix):</text>
</g>
<!-- 3&#45;&gt;5 -->
<g id="edge45" class="edge">
<title>3&#45;&gt;5</title>
<path fill="none" stroke="red" d="M603.73,-1166.53C652.43,-1151.05 735.74,-1124.57 790.46,-1107.18"/>
<polygon fill="red" stroke="red" points="791.52,-1110.51 799.99,-1104.15 789.4,-1103.84 791.52,-1110.51"/>
<text text-anchor="middle" x="804" y="-1126.8" font-family="DejaVu Sans Mono" font-size="14.00">(matrix != [[]])</text>
</g>
<!-- 7 -->
<g id="node6" class="node">
<title>7</title>
<polygon fill="#e552ff" stroke="#e552ff" points="607.5,-1008.5 565.5,-1008.5 565.5,-1012.5 553.5,-1012.5 553.5,-972.5 607.5,-972.5 607.5,-1008.5"/>
<polyline fill="none" stroke="#e552ff" points="553.5,-1008.5 565.5,-1008.5 "/>
<text text-anchor="middle" x="580.5" y="-986.8" font-family="DejaVu Sans Mono" font-size="14.00">len</text>
</g>
<!-- 5&#45;&gt;7 -->
<g id="edge3" class="edge">
<title>5&#45;&gt;7</title>
<path fill="none" stroke="black" stroke-dasharray="5,2" d="M741.32,-1077.98C711.97,-1073.09 680.41,-1065.81 652.5,-1055 632.04,-1047.08 613.59,-1030.52 600.48,-1016.29"/>
<polygon fill="black" stroke="black" points="603.02,-1013.88 593.78,-1008.7 597.77,-1018.51 603.02,-1013.88"/>
<text text-anchor="middle" x="673.5" y="-1043.8" font-family="DejaVu Sans Mono" font-size="14.00">calls</text>
</g>
<!-- 8 -->
<g id="node7" class="node">
<title>8</title>
<polygon fill="#e552ff" stroke="#e552ff" points="679.5,-1008.5 637.5,-1008.5 637.5,-1012.5 625.5,-1012.5 625.5,-972.5 679.5,-972.5 679.5,-1008.5"/>
<polyline fill="none" stroke="#e552ff" points="625.5,-1008.5 637.5,-1008.5 "/>
<text text-anchor="middle" x="652.5" y="-986.8" font-family="DejaVu Sans Mono" font-size="14.00">len</text>
</g>
<!-- 5&#45;&gt;8 -->
<g id="edge4" class="edge">
<title>5&#45;&gt;8</title>
<path fill="none" stroke="black" stroke-dasharray="5,2" d="M781.61,-1075.21C750.07,-1066.64 712.52,-1052.98 683.5,-1032 677.94,-1027.98 672.91,-1022.69 668.6,-1017.26"/>
<polygon fill="black" stroke="black" points="671.14,-1014.81 662.43,-1008.78 665.48,-1018.93 671.14,-1014.81"/>
<text text-anchor="middle" x="744.5" y="-1043.8" font-family="DejaVu Sans Mono" font-size="14.00">calls</text>
</g>
<!-- 9 -->
<g id="node8" class="node">
<title>9</title>
<polygon fill="#98fb98" stroke="black" points="1227.73,-996.06 962.5,-1008.5 697.27,-996.06 697.52,-975.94 1227.48,-975.94 1227.73,-996.06"/>
<text text-anchor="middle" x="962.5" y="-986.8" font-family="DejaVu Sans Mono" font-size="14.00">raise Exception(&#39;Not a square matrix&#39;)</text>
</g>
<!-- 5&#45;&gt;9 -->
<g id="edge5" class="edge">
<title>5&#45;&gt;9</title>
<path fill="none" stroke="green" d="M863.72,-1072.28C882.95,-1056.56 912.72,-1032.21 934.56,-1014.35"/>
<polygon fill="green" stroke="green" points="936.97,-1016.9 942.5,-1007.86 932.54,-1011.48 936.97,-1016.9"/>
<text text-anchor="middle" x="1019.5" y="-1043.8" font-family="DejaVu Sans Mono" font-size="14.00">len(matrix[0]) != len(matrix)</text>
</g>
<!-- 10 -->
<g id="node9" class="node">
<title>10</title>
<polygon fill="#fffb81" stroke="black" points="1385.5,-1032 1245.5,-1032 1245.5,-949 1385.5,-949 1385.5,-1032"/>
<text text-anchor="start" x="1253.5" y="-1016.8" font-family="DejaVu Sans Mono" font-size="14.00">n = len(matrix)</text>
<text text-anchor="start" x="1253.5" y="-1001.8" font-family="DejaVu Sans Mono" font-size="14.00">mat = matrix</text>
<text text-anchor="start" x="1253.5" y="-986.8" font-family="DejaVu Sans Mono" font-size="14.00">temp = [0] * n</text>
<text text-anchor="start" x="1253.5" y="-971.8" font-family="DejaVu Sans Mono" font-size="14.00">total = 1</text>
<text text-anchor="middle" x="1315.5" y="-956.8" font-family="DejaVu Sans Mono" font-size="14.00">det = 1</text>
</g>
<!-- 5&#45;&gt;10 -->
<g id="edge44" class="edge">
<title>5&#45;&gt;10</title>
<path fill="none" stroke="red" d="M998.6,-1081.38C1069.7,-1074.63 1154.45,-1061.29 1235.84,-1032"/>
<polygon fill="red" stroke="red" points="1237.06,-1035.28 1245.23,-1028.54 1234.64,-1028.71 1237.06,-1035.28"/>
<text text-anchor="middle" x="1333.5" y="-1043.8" font-family="DejaVu Sans Mono" font-size="14.00">(len(matrix[0]) == len(matrix))</text>
</g>
<!-- 12 -->
<g id="node10" class="node">
<title>12</title>
<polygon fill="#e552ff" stroke="#e552ff" points="1248.5,-910 1206.5,-910 1206.5,-914 1194.5,-914 1194.5,-874 1248.5,-874 1248.5,-910"/>
<polyline fill="none" stroke="#e552ff" points="1194.5,-910 1206.5,-910 "/>
<text text-anchor="middle" x="1221.5" y="-888.3" font-family="DejaVu Sans Mono" font-size="14.00">len</text>
</g>
<!-- 10&#45;&gt;12 -->
<g id="edge6" class="edge">
<title>10&#45;&gt;12</title>
<path fill="none" stroke="black" stroke-dasharray="5,2" d="M1275.91,-948.85C1265.46,-938.12 1254.5,-926.88 1245.19,-917.32"/>
<polygon fill="black" stroke="black" points="1247.59,-914.77 1238.11,-910.05 1242.58,-919.65 1247.59,-914.77"/>
<text text-anchor="middle" x="1286.5" y="-929.8" font-family="DejaVu Sans Mono" font-size="14.00">calls</text>
</g>
<!-- 13 -->
<g id="node11" class="node">
<title>13</title>
<polygon fill="#ffbe52" stroke="black" points="1552.19,-892 1480.84,-910 1338.16,-910 1266.81,-892 1338.16,-874 1480.84,-874 1552.19,-892"/>
<text text-anchor="middle" x="1409.5" y="-888.3" font-family="DejaVu Sans Mono" font-size="14.00">for i in range(0, n):</text>
</g>
<!-- 10&#45;&gt;13 -->
<g id="edge43" class="edge">
<title>10&#45;&gt;13</title>
<path fill="none" stroke="black" d="M1355.09,-948.85C1365.54,-938.12 1376.5,-926.88 1385.81,-917.32"/>
<polygon fill="black" stroke="black" points="1388.42,-919.65 1392.89,-910.05 1383.41,-914.77 1388.42,-919.65"/>
</g>
<!-- 14 -->
<g id="node12" class="node">
<title>14</title>
<polygon fill="#e552ff" stroke="#e552ff" points="1139.5,-827 1093.5,-827 1093.5,-831 1081.5,-831 1081.5,-791 1139.5,-791 1139.5,-827"/>
<polyline fill="none" stroke="#e552ff" points="1081.5,-827 1093.5,-827 "/>
<text text-anchor="middle" x="1110.5" y="-805.3" font-family="DejaVu Sans Mono" font-size="14.00">range</text>
</g>
<!-- 13&#45;&gt;14 -->
<g id="edge7" class="edge">
<title>13&#45;&gt;14</title>
<path fill="none" stroke="black" stroke-dasharray="5,2" d="M1325.9,-876.95C1295.74,-871.52 1261.49,-864.94 1230.5,-858 1191.47,-849.26 1179.45,-852.52 1143.5,-835 1142.13,-834.33 1140.75,-833.6 1139.39,-832.82"/>
<polygon fill="black" stroke="black" points="1140.94,-829.66 1130.64,-827.18 1137.15,-835.54 1140.94,-829.66"/>
<text text-anchor="middle" x="1251.5" y="-846.8" font-family="DejaVu Sans Mono" font-size="14.00">calls</text>
</g>
<!-- 15 -->
<g id="node13" class="node">
<title>15</title>
<polygon fill="#fffb81" stroke="black" points="1249,-827 1158,-827 1158,-791 1249,-791 1249,-827"/>
<text text-anchor="middle" x="1203.5" y="-805.3" font-family="DejaVu Sans Mono" font-size="14.00">index = i</text>
</g>
<!-- 13&#45;&gt;15 -->
<g id="edge37" class="edge">
<title>13&#45;&gt;15</title>
<path fill="none" stroke="green" d="M1359.05,-873.99C1344.61,-868.98 1328.89,-863.4 1314.5,-858 1288.92,-848.4 1282.57,-845.85 1257.5,-835 1254.7,-833.79 1251.82,-832.52 1248.93,-831.23"/>
<polygon fill="green" stroke="green" points="1250.25,-827.99 1239.7,-827.06 1247.37,-834.37 1250.25,-827.99"/>
<text text-anchor="middle" x="1360" y="-846.8" font-family="DejaVu Sans Mono" font-size="14.00">range(0, n)</text>
</g>
<!-- 16 -->
<g id="node35" class="node">
<title>16</title>
<polygon fill="#ffbe52" stroke="black" points="1552.19,-809 1480.84,-827 1338.16,-827 1266.81,-809 1338.16,-791 1480.84,-791 1552.19,-809"/>
<text text-anchor="middle" x="1409.5" y="-805.3" font-family="DejaVu Sans Mono" font-size="14.00">for i in range(0, n):</text>
</g>
<!-- 13&#45;&gt;16 -->
<g id="edge42" class="edge">
<title>13&#45;&gt;16</title>
<path fill="none" stroke="green" d="M1409.5,-873.82C1409.5,-863.19 1409.5,-849.31 1409.5,-837.2"/>
<polygon fill="green" stroke="green" points="1413,-837.15 1409.5,-827.15 1406,-837.15 1413,-837.15"/>
</g>
<!-- 17 -->
<g id="node14" class="node">
<title>17</title>
<polygon fill="#ffbe52" stroke="black" points="887.33,-726 760.42,-744 506.58,-744 379.67,-726 506.58,-708 760.42,-708 887.33,-726"/>
<text text-anchor="middle" x="633.5" y="-722.3" font-family="DejaVu Sans Mono" font-size="14.00">while index &lt; n and mat[index][i] == 0:</text>
</g>
<!-- 15&#45;&gt;17 -->
<g id="edge36" class="edge">
<title>15&#45;&gt;17</title>
<path fill="none" stroke="black" d="M1172.27,-790.89C1165.58,-787.82 1158.44,-784.98 1151.5,-783 1134.04,-778.02 934.72,-757.26 788.53,-742.47"/>
<polygon fill="black" stroke="black" points="788.84,-738.98 778.54,-741.46 788.13,-745.95 788.84,-738.98"/>
</g>
<!-- 18 -->
<g id="node15" class="node">
<title>18</title>
<polygon fill="#fffb81" stroke="black" points="1194,-669 1095,-669 1095,-633 1194,-633 1194,-669"/>
<text text-anchor="middle" x="1144.5" y="-647.3" font-family="DejaVu Sans Mono" font-size="14.00">index += 1</text>
</g>
<!-- 17&#45;&gt;18 -->
<g id="edge9" class="edge">
<title>17&#45;&gt;18</title>
<path fill="none" stroke="green" d="M801.27,-713.78C826.41,-708.76 851.57,-701.75 874.5,-692 884.4,-687.79 883.52,-681.03 893.5,-677 927.01,-663.47 1021.66,-656.99 1084.67,-654.1"/>
<polygon fill="green" stroke="green" points="1085.05,-657.59 1094.88,-653.65 1084.74,-650.59 1085.05,-657.59"/>
<text text-anchor="middle" x="1026" y="-680.8" font-family="DejaVu Sans Mono" font-size="14.00">index &lt; n and mat[index][i] == 0</text>
</g>
<!-- 19 -->
<g id="node16" class="node">
<title>19</title>
<polygon fill="#ff6752" stroke="black" points="774.5,-669 653.34,-651 774.5,-633 895.66,-651 774.5,-669"/>
<text text-anchor="middle" x="774.5" y="-647.3" font-family="DejaVu Sans Mono" font-size="14.00">if index == n:</text>
</g>
<!-- 17&#45;&gt;19 -->
<g id="edge35" class="edge">
<title>17&#45;&gt;19</title>
<path fill="none" stroke="red" d="M560.79,-707.93C542.82,-700.39 531.67,-690.18 543.5,-677 552.69,-666.77 617.63,-660.34 676.32,-656.57"/>
<polygon fill="red" stroke="red" points="676.67,-660.06 686.43,-655.94 676.23,-653.07 676.67,-660.06"/>
<text text-anchor="middle" x="709" y="-680.8" font-family="DejaVu Sans Mono" font-size="14.00">(not (index &lt; n and mat[index][i] == 0))</text>
</g>
<!-- 18&#45;&gt;17 -->
<g id="edge8" class="edge">
<title>18&#45;&gt;17</title>
<path fill="none" stroke="black" d="M1160.28,-669.12C1165.53,-676.85 1168.65,-685.66 1162.5,-692 1152.2,-702.61 911.26,-699.08 896.5,-700 860.2,-702.27 821.16,-705.53 784.55,-708.95"/>
<polygon fill="black" stroke="black" points="783.92,-705.5 774.29,-709.92 784.58,-712.47 783.92,-705.5"/>
</g>
<!-- 20 -->
<g id="node17" class="node">
<title>20</title>
<polygon fill="#fffb81" stroke="black" points="1218,-602 1135,-602 1135,-566 1218,-566 1218,-602"/>
<text text-anchor="middle" x="1176.5" y="-580.3" font-family="DejaVu Sans Mono" font-size="14.00">continue</text>
</g>
<!-- 19&#45;&gt;20 -->
<g id="edge11" class="edge">
<title>19&#45;&gt;20</title>
<path fill="none" stroke="green" d="M829.55,-641.1C907.39,-628.51 1048.58,-605.68 1124.64,-593.39"/>
<polygon fill="green" stroke="green" points="1125.61,-596.77 1134.93,-591.72 1124.5,-589.86 1125.61,-596.77"/>
<text text-anchor="middle" x="1053" y="-613.8" font-family="DejaVu Sans Mono" font-size="14.00">index == n</text>
</g>
<!-- 21 -->
<g id="node18" class="node">
<title>21</title>
<polygon fill="#ff6752" stroke="black" points="774.5,-602 653.34,-584 774.5,-566 895.66,-584 774.5,-602"/>
<text text-anchor="middle" x="774.5" y="-580.3" font-family="DejaVu Sans Mono" font-size="14.00">if index != i:</text>
</g>
<!-- 19&#45;&gt;21 -->
<g id="edge34" class="edge">
<title>19&#45;&gt;21</title>
<path fill="none" stroke="red" d="M774.5,-632.92C774.5,-626.7 774.5,-619.5 774.5,-612.6"/>
<polygon fill="red" stroke="red" points="778,-612.19 774.5,-602.19 771,-612.19 778,-612.19"/>
<text text-anchor="middle" x="824.5" y="-613.8" font-family="DejaVu Sans Mono" font-size="14.00">(index != n)</text>
</g>
<!-- 20&#45;&gt;13 -->
<g id="edge10" class="edge">
<title>20&#45;&gt;13</title>
<path fill="none" stroke="black" d="M1218.32,-587.06C1325.28,-592.88 1600.5,-611.6 1600.5,-650 1600.5,-810 1600.5,-810 1600.5,-810 1600.5,-849.26 1565.87,-869.78 1526.09,-880.39"/>
<polygon fill="black" stroke="black" points="1525.05,-877.04 1516.17,-882.82 1526.71,-883.84 1525.05,-877.04"/>
</g>
<!-- 23 -->
<g id="node19" class="node">
<title>23</title>
<polygon fill="#ffbe52" stroke="black" points="849.19,-517 777.84,-535 635.16,-535 563.81,-517 635.16,-499 777.84,-499 849.19,-517"/>
<text text-anchor="middle" x="706.5" y="-513.3" font-family="DejaVu Sans Mono" font-size="14.00">for j in range(0, n):</text>
</g>
<!-- 21&#45;&gt;23 -->
<g id="edge32" class="edge">
<title>21&#45;&gt;23</title>
<path fill="none" stroke="green" d="M759.07,-568.25C751.11,-560.64 741.19,-551.16 732.12,-542.49"/>
<polygon fill="green" stroke="green" points="734.41,-539.84 724.76,-535.46 729.57,-544.9 734.41,-539.84"/>
<text text-anchor="middle" x="788" y="-546.8" font-family="DejaVu Sans Mono" font-size="14.00">index != i</text>
</g>
<!-- 24 -->
<g id="node25" class="node">
<title>24</title>
<polygon fill="#ffbe52" stroke="black" points="1326.19,-359 1254.84,-377 1112.16,-377 1040.81,-359 1112.16,-341 1254.84,-341 1326.19,-359"/>
<text text-anchor="middle" x="1183.5" y="-355.3" font-family="DejaVu Sans Mono" font-size="14.00">for j in range(0, n):</text>
</g>
<!-- 21&#45;&gt;24 -->
<g id="edge33" class="edge">
<title>21&#45;&gt;24</title>
<path fill="none" stroke="red" d="M842.55,-576.07C958.32,-562.72 1185.74,-529.2 1233.5,-468 1247.72,-449.78 1241.74,-437.59 1233.5,-416 1228.96,-404.11 1220.61,-393.14 1212.02,-384.12"/>
<polygon fill="red" stroke="red" points="1214.4,-381.55 1204.82,-377.03 1209.48,-386.54 1214.4,-381.55"/>
<text text-anchor="middle" x="1274.5" y="-479.8" font-family="DejaVu Sans Mono" font-size="14.00">(index == i)</text>
</g>
<!-- 25 -->
<g id="node20" class="node">
<title>25</title>
<polygon fill="#e552ff" stroke="#e552ff" points="445.5,-460 399.5,-460 399.5,-464 387.5,-464 387.5,-424 445.5,-424 445.5,-460"/>
<polyline fill="none" stroke="#e552ff" points="387.5,-460 399.5,-460 "/>
<text text-anchor="middle" x="416.5" y="-438.3" font-family="DejaVu Sans Mono" font-size="14.00">range</text>
</g>
<!-- 23&#45;&gt;25 -->
<g id="edge12" class="edge">
<title>23&#45;&gt;25</title>
<path fill="none" stroke="black" stroke-dasharray="5,2" d="M601.31,-507.49C553.45,-500.84 497.03,-489.02 449.5,-468 447.92,-467.3 446.34,-466.51 444.79,-465.66"/>
<polygon fill="black" stroke="black" points="446.48,-462.59 436.16,-460.19 442.73,-468.5 446.48,-462.59"/>
<text text-anchor="middle" x="530.5" y="-479.8" font-family="DejaVu Sans Mono" font-size="14.00">calls</text>
</g>
<!-- 26 -->
<g id="node21" class="node">
<title>26</title>
<polygon fill="#fffb81" stroke="black" points="901,-460 464,-460 464,-424 901,-424 901,-460"/>
<text text-anchor="middle" x="682.5" y="-438.3" font-family="DejaVu Sans Mono" font-size="14.00">mat[index][j], mat[i][j] = mat[i][j], mat[index][j]</text>
</g>
<!-- 23&#45;&gt;26 -->
<g id="edge14" class="edge">
<title>23&#45;&gt;26</title>
<path fill="none" stroke="green" d="M700.81,-498.7C697.97,-490.06 694.47,-479.42 691.3,-469.76"/>
<polygon fill="green" stroke="green" points="694.6,-468.58 688.15,-460.18 687.95,-470.77 694.6,-468.58"/>
<text text-anchor="middle" x="743" y="-479.8" font-family="DejaVu Sans Mono" font-size="14.00">range(0, n)</text>
</g>
<!-- 27 -->
<g id="node22" class="node">
<title>27</title>
<polygon fill="#fffb81" stroke="black" points="1224,-460 919,-460 919,-424 1224,-424 1224,-460"/>
<text text-anchor="middle" x="1071.5" y="-438.3" font-family="DejaVu Sans Mono" font-size="14.00">det = det * int(pow(&#45;1, index &#45; i))</text>
</g>
<!-- 23&#45;&gt;27 -->
<g id="edge31" class="edge">
<title>23&#45;&gt;27</title>
<path fill="none" stroke="green" d="M783.91,-500.52C840.1,-489.28 916.47,-474.01 976.39,-462.02"/>
<polygon fill="green" stroke="green" points="977.11,-465.45 986.23,-460.05 975.74,-458.58 977.11,-465.45"/>
</g>
<!-- 26&#45;&gt;23 -->
<g id="edge13" class="edge">
<title>26&#45;&gt;23</title>
<path fill="none" stroke="black" d="M682.07,-460.42C682.33,-468.02 683.23,-477.08 687.86,-489.67"/>
<polygon fill="black" stroke="black" points="684.65,-491.07 691.7,-498.98 691.12,-488.4 684.65,-491.07"/>
</g>
<!-- 28 -->
<g id="node23" class="node">
<title>28</title>
<polygon fill="#e552ff" stroke="#e552ff" points="995.5,-377 953.5,-377 953.5,-381 941.5,-381 941.5,-341 995.5,-341 995.5,-377"/>
<polyline fill="none" stroke="#e552ff" points="941.5,-377 953.5,-377 "/>
<text text-anchor="middle" x="968.5" y="-355.3" font-family="DejaVu Sans Mono" font-size="14.00">int</text>
</g>
<!-- 27&#45;&gt;28 -->
<g id="edge15" class="edge">
<title>27&#45;&gt;28</title>
<path fill="none" stroke="black" stroke-dasharray="5,2" d="M1049.36,-423.94C1035.08,-412.9 1016.13,-398.17 999.5,-385 998.91,-384.53 998.32,-384.06 997.72,-383.58"/>
<polygon fill="black" stroke="black" points="999.8,-380.77 989.81,-377.26 995.43,-386.24 999.8,-380.77"/>
<text text-anchor="middle" x="1047.5" y="-396.8" font-family="DejaVu Sans Mono" font-size="14.00">calls</text>
</g>
<!-- 27&#45;&gt;24 -->
<g id="edge30" class="edge">
<title>27&#45;&gt;24</title>
<path fill="none" stroke="black" d="M1095.25,-423.82C1111.59,-412.01 1133.47,-396.18 1151.36,-383.24"/>
<polygon fill="black" stroke="black" points="1153.73,-385.85 1159.78,-377.15 1149.63,-380.18 1153.73,-385.85"/>
</g>
<!-- 29 -->
<g id="node24" class="node">
<title>29</title>
<polygon fill="#e552ff" stroke="#e552ff" points="995.5,-302 953.5,-302 953.5,-306 941.5,-306 941.5,-266 995.5,-266 995.5,-302"/>
<polyline fill="none" stroke="#e552ff" points="941.5,-302 953.5,-302 "/>
<text text-anchor="middle" x="968.5" y="-280.3" font-family="DejaVu Sans Mono" font-size="14.00">pow</text>
</g>
<!-- 28&#45;&gt;29 -->
<g id="edge16" class="edge">
<title>28&#45;&gt;29</title>
<path fill="none" stroke="black" d="M968.5,-340.7C968.5,-332.25 968.5,-321.87 968.5,-312.37"/>
<polygon fill="black" stroke="black" points="972,-312.18 968.5,-302.18 965,-312.18 972,-312.18"/>
</g>
<!-- 30 -->
<g id="node26" class="node">
<title>30</title>
<polygon fill="#e552ff" stroke="#e552ff" points="1077.5,-302 1031.5,-302 1031.5,-306 1019.5,-306 1019.5,-266 1077.5,-266 1077.5,-302"/>
<polyline fill="none" stroke="#e552ff" points="1019.5,-302 1031.5,-302 "/>
<text text-anchor="middle" x="1048.5" y="-280.3" font-family="DejaVu Sans Mono" font-size="14.00">range</text>
</g>
<!-- 24&#45;&gt;30 -->
<g id="edge17" class="edge">
<title>24&#45;&gt;30</title>
<path fill="none" stroke="black" stroke-dasharray="5,2" d="M1130.45,-340.85C1124.63,-338.44 1118.87,-335.82 1113.5,-333 1097.99,-324.86 1095.59,-320.4 1081.5,-310 1080.63,-309.36 1079.75,-308.71 1078.87,-308.05"/>
<polygon fill="black" stroke="black" points="1080.91,-305.21 1070.81,-302.02 1076.72,-310.81 1080.91,-305.21"/>
<text text-anchor="middle" x="1134.5" y="-321.8" font-family="DejaVu Sans Mono" font-size="14.00">calls</text>
</g>
<!-- 31 -->
<g id="node27" class="node">
<title>31</title>
<polygon fill="#fffb81" stroke="black" points="1269,-302 1096,-302 1096,-266 1269,-266 1269,-302"/>
<text text-anchor="middle" x="1182.5" y="-280.3" font-family="DejaVu Sans Mono" font-size="14.00">temp[j] = mat[i][j]</text>
</g>
<!-- 24&#45;&gt;31 -->
<g id="edge19" class="edge">
<title>24&#45;&gt;31</title>
<path fill="none" stroke="green" d="M1165.67,-340.74C1163.98,-338.31 1162.52,-335.7 1161.5,-333 1158.81,-325.86 1160.13,-318.25 1163.13,-311.24"/>
<polygon fill="green" stroke="green" points="1166.37,-312.61 1168.04,-302.15 1160.21,-309.29 1166.37,-312.61"/>
<text text-anchor="middle" x="1207" y="-321.8" font-family="DejaVu Sans Mono" font-size="14.00">range(0, n)</text>
</g>
<!-- 32 -->
<g id="node28" class="node">
<title>32</title>
<polygon fill="#ffbe52" stroke="black" points="1621.72,-284 1538.11,-302 1370.89,-302 1287.28,-284 1370.89,-266 1538.11,-266 1621.72,-284"/>
<text text-anchor="middle" x="1454.5" y="-280.3" font-family="DejaVu Sans Mono" font-size="14.00">for j in range(i + 1, n):</text>
</g>
<!-- 24&#45;&gt;32 -->
<g id="edge29" class="edge">
<title>24&#45;&gt;32</title>
<path fill="none" stroke="green" d="M1246.7,-340.98C1286.95,-330.13 1339.24,-316.05 1381.3,-304.72"/>
<polygon fill="green" stroke="green" points="1382.46,-308.03 1391.2,-302.05 1380.64,-301.27 1382.46,-308.03"/>
</g>
<!-- 31&#45;&gt;24 -->
<g id="edge18" class="edge">
<title>31&#45;&gt;24</title>
<path fill="none" stroke="black" d="M1240.03,-302.19C1255.48,-309.89 1265.67,-320.17 1256.5,-333 1256.37,-333.18 1256.24,-333.37 1256.1,-333.55"/>
<polygon fill="black" stroke="black" points="1253.53,-331.18 1249.19,-340.84 1258.61,-335.99 1253.53,-331.18"/>
</g>
<!-- 32&#45;&gt;13 -->
<g id="edge28" class="edge">
<title>32&#45;&gt;13</title>
<path fill="none" stroke="green" d="M1561.04,-297.16C1593.37,-307.25 1620.5,-325.42 1620.5,-358 1620.5,-810 1620.5,-810 1620.5,-810 1620.5,-836.14 1608.52,-843.91 1586.5,-858 1573.67,-866.21 1544.96,-872.95 1514.32,-878.15"/>
<polygon fill="green" stroke="green" points="1513.62,-874.72 1504.32,-879.79 1514.75,-881.63 1513.62,-874.72"/>
</g>
<!-- 33 -->
<g id="node29" class="node">
<title>33</title>
<polygon fill="#e552ff" stroke="#e552ff" points="1308.5,-219 1262.5,-219 1262.5,-223 1250.5,-223 1250.5,-183 1308.5,-183 1308.5,-219"/>
<polyline fill="none" stroke="#e552ff" points="1250.5,-219 1262.5,-219 "/>
<text text-anchor="middle" x="1279.5" y="-197.3" font-family="DejaVu Sans Mono" font-size="14.00">range</text>
</g>
<!-- 32&#45;&gt;33 -->
<g id="edge20" class="edge">
<title>32&#45;&gt;33</title>
<path fill="none" stroke="black" stroke-dasharray="5,2" d="M1392.55,-266C1378.49,-261.41 1363.78,-256.02 1350.5,-250 1332.52,-241.85 1328.83,-238.09 1312.5,-227 1311.61,-226.39 1310.71,-225.77 1309.8,-225.14"/>
<polygon fill="black" stroke="black" points="1311.8,-222.27 1301.64,-219.26 1307.71,-227.95 1311.8,-222.27"/>
<text text-anchor="middle" x="1371.5" y="-238.8" font-family="DejaVu Sans Mono" font-size="14.00">calls</text>
</g>
<!-- 34 -->
<g id="node30" class="node">
<title>34</title>
<polygon fill="#fffb81" stroke="black" points="1475,-220 1326,-220 1326,-182 1475,-182 1475,-220"/>
<text text-anchor="start" x="1334" y="-204.8" font-family="DejaVu Sans Mono" font-size="14.00">num1 = temp[i]</text>
<text text-anchor="middle" x="1400.5" y="-189.8" font-family="DejaVu Sans Mono" font-size="14.00">num2 = mat[j][i]</text>
</g>
<!-- 32&#45;&gt;34 -->
<g id="edge27" class="edge">
<title>32&#45;&gt;34</title>
<path fill="none" stroke="green" d="M1416.36,-265.92C1410.43,-261.58 1405.09,-256.31 1401.5,-250 1398.2,-244.2 1396.87,-237.33 1396.59,-230.63"/>
<polygon fill="green" stroke="green" points="1400.1,-230.52 1396.9,-220.42 1393.1,-230.31 1400.1,-230.52"/>
<text text-anchor="middle" x="1463.5" y="-238.8" font-family="DejaVu Sans Mono" font-size="14.00">range(i + 1, n)</text>
</g>
<!-- 36 -->
<g id="node31" class="node">
<title>36</title>
<polygon fill="#ffbe52" stroke="black" points="1467.19,-140 1395.84,-158 1253.16,-158 1181.81,-140 1253.16,-122 1395.84,-122 1467.19,-140"/>
<text text-anchor="middle" x="1324.5" y="-136.3" font-family="DejaVu Sans Mono" font-size="14.00">for k in range(0, n):</text>
</g>
<!-- 34&#45;&gt;36 -->
<g id="edge26" class="edge">
<title>34&#45;&gt;36</title>
<path fill="none" stroke="black" d="M1377.28,-181.98C1370.1,-176.4 1362.09,-170.18 1354.52,-164.3"/>
<polygon fill="black" stroke="black" points="1356.58,-161.47 1346.53,-158.1 1352.29,-167 1356.58,-161.47"/>
</g>
<!-- 37 -->
<g id="node32" class="node">
<title>37</title>
<polygon fill="#e552ff" stroke="#e552ff" points="1015.5,-83 969.5,-83 969.5,-87 957.5,-87 957.5,-47 1015.5,-47 1015.5,-83"/>
<polyline fill="none" stroke="#e552ff" points="957.5,-83 969.5,-83 "/>
<text text-anchor="middle" x="986.5" y="-61.3" font-family="DejaVu Sans Mono" font-size="14.00">range</text>
</g>
<!-- 36&#45;&gt;37 -->
<g id="edge21" class="edge">
<title>36&#45;&gt;37</title>
<path fill="none" stroke="black" stroke-dasharray="5,2" d="M1206.01,-133.89C1147.93,-128.05 1078.07,-115.92 1019.5,-91 1017.86,-90.3 1016.23,-89.51 1014.63,-88.64"/>
<polygon fill="black" stroke="black" points="1016.08,-85.42 1005.76,-83.04 1012.34,-91.34 1016.08,-85.42"/>
<text text-anchor="middle" x="1103.5" y="-102.8" font-family="DejaVu Sans Mono" font-size="14.00">calls</text>
</g>
<!-- 38 -->
<g id="node33" class="node">
<title>38</title>
<polygon fill="#fffb81" stroke="black" points="1421.5,-83 1033.5,-83 1033.5,-47 1421.5,-47 1421.5,-83"/>
<text text-anchor="middle" x="1227.5" y="-61.3" font-family="DejaVu Sans Mono" font-size="14.00">mat[j][k] = num1 * mat[j][k] &#45; num2 * temp[k]</text>
</g>
<!-- 36&#45;&gt;38 -->
<g id="edge23" class="edge">
<title>36&#45;&gt;38</title>
<path fill="none" stroke="green" d="M1242.85,-124.45C1234.34,-121.49 1227.64,-118.02 1224.5,-114 1219.96,-108.18 1218.91,-100.67 1219.48,-93.31"/>
<polygon fill="green" stroke="green" points="1222.97,-93.66 1221.18,-83.22 1216.07,-92.5 1222.97,-93.66"/>
<text text-anchor="middle" x="1270" y="-102.8" font-family="DejaVu Sans Mono" font-size="14.00">range(0, n)</text>
</g>
<!-- 39 -->
<g id="node34" class="node">
<title>39</title>
<polygon fill="#fffb81" stroke="black" points="1621.5,-83 1439.5,-83 1439.5,-47 1621.5,-47 1621.5,-83"/>
<text text-anchor="middle" x="1530.5" y="-61.3" font-family="DejaVu Sans Mono" font-size="14.00">total = total * num1</text>
</g>
<!-- 36&#45;&gt;39 -->
<g id="edge25" class="edge">
<title>36&#45;&gt;39</title>
<path fill="none" stroke="green" d="M1372.54,-121.98C1402.49,-111.36 1441.21,-97.64 1472.82,-86.44"/>
<polygon fill="green" stroke="green" points="1474.13,-89.69 1482.39,-83.05 1471.79,-83.09 1474.13,-89.69"/>
</g>
<!-- 38&#45;&gt;36 -->
<g id="edge22" class="edge">
<title>38&#45;&gt;36</title>
<path fill="none" stroke="black" d="M1300.48,-83.11C1307.72,-87.3 1314.3,-92.51 1319.5,-99 1322.43,-102.66 1324.17,-107.15 1325.14,-111.78"/>
<polygon fill="black" stroke="black" points="1321.68,-112.3 1326.2,-121.88 1328.64,-111.57 1321.68,-112.3"/>
</g>
<!-- 39&#45;&gt;32 -->
<g id="edge24" class="edge">
<title>39&#45;&gt;32</title>
<path fill="none" stroke="black" d="M1535.54,-83.22C1544.63,-118.02 1559.81,-197.79 1525.5,-250 1523.11,-253.64 1520.2,-256.89 1516.94,-259.78"/>
<polygon fill="black" stroke="black" points="1514.68,-257.11 1508.79,-265.92 1518.89,-262.7 1514.68,-257.11"/>
</g>
<!-- 40 -->
<g id="node36" class="node">
<title>40</title>
<polygon fill="#e552ff" stroke="#e552ff" points="1373.5,-744 1327.5,-744 1327.5,-748 1315.5,-748 1315.5,-708 1373.5,-708 1373.5,-744"/>
<polyline fill="none" stroke="#e552ff" points="1315.5,-744 1327.5,-744 "/>
<text text-anchor="middle" x="1344.5" y="-722.3" font-family="DejaVu Sans Mono" font-size="14.00">range</text>
</g>
<!-- 16&#45;&gt;40 -->
<g id="edge38" class="edge">
<title>16&#45;&gt;40</title>
<path fill="none" stroke="black" stroke-dasharray="5,2" d="M1361.7,-790.99C1355.28,-786.73 1349.54,-781.47 1345.5,-775 1341.71,-768.92 1340.35,-761.51 1340.22,-754.34"/>
<polygon fill="black" stroke="black" points="1343.72,-754.39 1340.76,-744.21 1336.73,-754.01 1343.72,-754.39"/>
<text text-anchor="middle" x="1366.5" y="-763.8" font-family="DejaVu Sans Mono" font-size="14.00">calls</text>
</g>
<!-- 41 -->
<g id="node37" class="node">
<title>41</title>
<polygon fill="#fffb81" stroke="black" points="1581.5,-744 1391.5,-744 1391.5,-708 1581.5,-708 1581.5,-744"/>
<text text-anchor="middle" x="1486.5" y="-722.3" font-family="DejaVu Sans Mono" font-size="14.00">det = det * mat[i][i]</text>
</g>
<!-- 16&#45;&gt;41 -->
<g id="edge40" class="edge">
<title>16&#45;&gt;41</title>
<path fill="none" stroke="green" d="M1403.54,-790.66C1401.31,-780.88 1400.56,-768.88 1406.5,-760 1408.94,-756.35 1411.87,-753.1 1415.15,-750.21"/>
<polygon fill="green" stroke="green" points="1417.42,-752.88 1423.34,-744.1 1413.23,-747.27 1417.42,-752.88"/>
<text text-anchor="middle" x="1452" y="-763.8" font-family="DejaVu Sans Mono" font-size="14.00">range(0, n)</text>
</g>
<!-- 42 -->
<g id="node38" class="node">
<title>42</title>
<polygon fill="#98fb98" stroke="black" points="1297.61,-744 985.64,-744 905.39,-708 1217.36,-708 1297.61,-744"/>
<text text-anchor="middle" x="1101.5" y="-722.3" font-family="DejaVu Sans Mono" font-size="14.00">return int(det / total)</text>
</g>
<!-- 16&#45;&gt;42 -->
<g id="edge41" class="edge">
<title>16&#45;&gt;42</title>
<path fill="none" stroke="green" d="M1344.56,-790.92C1295.31,-777.97 1227.56,-760.15 1176.09,-746.62"/>
<polygon fill="green" stroke="green" points="1176.92,-743.21 1166.35,-744.06 1175.13,-749.98 1176.92,-743.21"/>
</g>
<!-- 41&#45;&gt;16 -->
<g id="edge39" class="edge">
<title>41&#45;&gt;16</title>
<path fill="none" stroke="black" d="M1498.82,-744.15C1504.18,-753.86 1507.93,-765.86 1501.5,-775 1498.66,-779.04 1495.28,-782.58 1491.51,-785.7"/>
<polygon fill="black" stroke="black" points="1489.44,-782.87 1483.29,-791.5 1493.48,-788.59 1489.44,-782.87"/>
</g>
<!-- input -->
<g id="node39" class="node">
<title>input</title>
<polygon fill="#afeeee" stroke="black" points="2010.54,-1107 1922.98,-1107 1900.46,-1071 1988.02,-1071 2010.54,-1107"/>
<text text-anchor="middle" x="1955.5" y="-1085.3" font-family="DejaVu Sans Mono" font-size="14.00">input</text>
</g>
<!-- call -->
<g id="node44" class="node">
<title>call</title>
<polygon fill="#e552ff" stroke="black" points="1982.5,-1008.5 1940.5,-1008.5 1940.5,-1012.5 1928.5,-1012.5 1928.5,-972.5 1982.5,-972.5 1982.5,-1008.5"/>
<polyline fill="none" stroke="black" points="1928.5,-1008.5 1940.5,-1008.5 "/>
<text text-anchor="middle" x="1955.5" y="-986.8" font-family="DejaVu Sans Mono" font-size="14.00">call</text>
</g>
<!-- input&#45;&gt;call -->
<!-- default -->
<g id="node40" class="node">
<title>default</title>
<polygon fill="#fffb81" stroke="black" points="1856.5,-1008.5 1782.5,-1008.5 1782.5,-972.5 1856.5,-972.5 1856.5,-1008.5"/>
<text text-anchor="middle" x="1819.5" y="-986.8" font-family="DejaVu Sans Mono" font-size="14.00">default</text>
</g>
<!-- if -->
<g id="node41" class="node">
<title>if</title>
<polygon fill="#ff6752" stroke="black" points="1955.5,-1198 1925.33,-1180 1955.5,-1162 1985.67,-1180 1955.5,-1198"/>
<text text-anchor="middle" x="1955.5" y="-1176.3" font-family="DejaVu Sans Mono" font-size="14.00">if</text>
</g>
<!-- if&#45;&gt;input -->
<!-- for -->
<g id="node42" class="node">
<title>for</title>
<polygon fill="#ffbe52" stroke="black" points="1906.04,-1180 1890.77,-1198 1860.23,-1198 1844.96,-1180 1860.23,-1162 1890.77,-1162 1906.04,-1180"/>
<text text-anchor="middle" x="1875.5" y="-1176.3" font-family="DejaVu Sans Mono" font-size="14.00">for</text>
</g>
<!-- return -->
<g id="node45" class="node">
<title>return</title>
<polygon fill="#98fb98" stroke="black" points="1882.29,-1107 1782.41,-1107 1756.71,-1071 1856.59,-1071 1882.29,-1107"/>
<text text-anchor="middle" x="1819.5" y="-1085.3" font-family="DejaVu Sans Mono" font-size="14.00">return</text>
</g>
<!-- for&#45;&gt;return -->
<!-- while -->
<g id="node43" class="node">
<title>while</title>
<polygon fill="#ffbe52" stroke="black" points="1827.06,-1180 1805.28,-1198 1761.72,-1198 1739.94,-1180 1761.72,-1162 1805.28,-1162 1827.06,-1180"/>
<text text-anchor="middle" x="1783.5" y="-1176.3" font-family="DejaVu Sans Mono" font-size="14.00">while</text>
</g>
<!-- return&#45;&gt;default -->
<!-- try -->
<g id="node46" class="node">
<title>try</title>
<polygon fill="orange" stroke="black" points="1684.5,-1198 1646.63,-1180 1684.5,-1162 1722.37,-1180 1684.5,-1198"/>
<polyline fill="none" stroke="black" points="1657.47,-1185.15 1657.47,-1174.85 "/>
<polyline fill="none" stroke="black" points="1673.66,-1167.15 1695.34,-1167.15 "/>
<polyline fill="none" stroke="black" points="1711.53,-1174.85 1711.53,-1185.15 "/>
<polyline fill="none" stroke="black" points="1695.34,-1192.85 1673.66,-1192.85 "/>
<text text-anchor="middle" x="1684.5" y="-1176.3" font-family="DejaVu Sans Mono" font-size="14.00">try</text>
</g>
<!-- raise -->
<g id="node47" class="node">
<title>raise</title>
<polygon fill="#98fb98" stroke="black" points="1739.19,-1094.56 1692.5,-1107 1645.81,-1094.56 1645.85,-1074.44 1739.15,-1074.44 1739.19,-1094.56"/>
<text text-anchor="middle" x="1692.5" y="-1085.3" font-family="DejaVu Sans Mono" font-size="14.00">raise</text>
</g>
<!-- try&#45;&gt;raise -->
</g>
</svg>
