<?xml version="1.0" encoding="UTF-8" standalone="no"?>
<!DOCTYPE svg PUBLIC "-//W3C//DTD SVG 1.1//EN"
 "http://www.w3.org/Graphics/SVG/1.1/DTD/svg11.dtd">
<!-- Generated by graphviz version 2.43.0 (0)
 -->
<!-- Title: cluster0matrix_ops.py Pages: 1 -->
<svg width="2191pt" height="499pt"
 viewBox="0.00 0.00 2190.50 499.00" xmlns="http://www.w3.org/2000/svg" xmlns:xlink="http://www.w3.org/1999/xlink">
<g id="graph0" class="graph" transform="scale(1 1) rotate(0) translate(4 495)">
<title>cluster0matrix_ops.py</title>
<polygon fill="white" stroke="transparent" points="-4,4 -4,-495 2186.5,-495 2186.5,4 -4,4"/>
<text text-anchor="middle" x="1091.25" y="-7.8" font-family="DejaVu Sans Mono" font-size="14.00">matrix_ops.py</text>
<g id="clust1" class="cluster">
<title>cluster_1</title>
<polygon fill="purple" stroke="purple" points="144.5,-317 144.5,-369 218.5,-369 218.5,-317 144.5,-317"/>
</g>
<g id="clust2" class="cluster">
<title>cluster0minor</title>
<polygon fill="none" stroke="black" points="371.5,-31 371.5,-483 1785.5,-483 1785.5,-31 371.5,-31"/>
<text text-anchor="middle" x="1078.5" y="-467.8" font-family="DejaVu Sans Mono" font-size="14.00">minor</text>
</g>
<g id="clust3" class="cluster">
<title>cluster_3</title>
<polygon fill="purple" stroke="purple" points="379.5,-317 379.5,-369 521.5,-369 521.5,-317 379.5,-317"/>
</g>
<g id="clust4" class="cluster">
<title>cluster_13</title>
<polygon fill="purple" stroke="purple" points="1073.5,-39 1073.5,-91 1195.5,-91 1195.5,-39 1073.5,-39"/>
</g>
<g id="clust5" class="cluster">
<title>cluster_KEY</title>
<polygon fill="none" stroke="black" points="1793.5,-242 1793.5,-483 2174.5,-483 2174.5,-242 1793.5,-242"/>
<text text-anchor="middle" x="1984" y="-467.8" font-family="DejaVu Sans Mono" font-size="14.00">KEY</text>
</g>
<!-- 1 -->
<g id="node1" class="node">
<title>1</title>
<polygon fill="#fffb81" stroke="black" points="363,-468 0,-468 0,-400 363,-400 363,-468"/>
<text text-anchor="start" x="8" y="-452.8" font-family="DejaVu Sans Mono" font-size="14.00">import numpy as np</text>
<text text-anchor="start" x="8" y="-437.8" font-family="DejaVu Sans Mono" font-size="14.00">def minor(matrix, i, j):...</text>
<text text-anchor="start" x="8" y="-422.8" font-family="DejaVu Sans Mono" font-size="14.00">matrix = [[1, 2, 3], [4, 5, 6], [7, 8, 9]]</text>
<text text-anchor="middle" x="181.5" y="-407.8" font-family="DejaVu Sans Mono" font-size="14.00">minor(matrix, 1, 1)</text>
</g>
<!-- 18 -->
<g id="node2" class="node">
<title>18</title>
<polygon fill="#e552ff" stroke="#e552ff" points="210.5,-361 164.5,-361 164.5,-365 152.5,-365 152.5,-325 210.5,-325 210.5,-361"/>
<polyline fill="none" stroke="#e552ff" points="152.5,-361 164.5,-361 "/>
<text text-anchor="middle" x="181.5" y="-339.3" font-family="DejaVu Sans Mono" font-size="14.00">minor</text>
</g>
<!-- 1&#45;&gt;18 -->
<g id="edge1" class="edge">
<title>1&#45;&gt;18</title>
<path fill="none" stroke="black" stroke-dasharray="5,2" d="M181.5,-399.86C181.5,-390.58 181.5,-380.6 181.5,-371.68"/>
<polygon fill="black" stroke="black" points="185,-371.44 181.5,-361.44 178,-371.44 185,-371.44"/>
<text text-anchor="middle" x="202.5" y="-380.8" font-family="DejaVu Sans Mono" font-size="14.00">calls</text>
</g>
<!-- 3 -->
<g id="node3" class="node">
<title>3</title>
<polygon fill="#ff6752" stroke="black" points="646.5,-452 380.73,-434 646.5,-416 912.27,-434 646.5,-452"/>
<text text-anchor="middle" x="646.5" y="-430.3" font-family="DejaVu Sans Mono" font-size="14.00">if len(matrix[0]) != len(matrix):</text>
</g>
<!-- 4 -->
<g id="node4" class="node">
<title>4</title>
<polygon fill="#e552ff" stroke="#e552ff" points="441.5,-361 399.5,-361 399.5,-365 387.5,-365 387.5,-325 441.5,-325 441.5,-361"/>
<polyline fill="none" stroke="#e552ff" points="387.5,-361 399.5,-361 "/>
<text text-anchor="middle" x="414.5" y="-339.3" font-family="DejaVu Sans Mono" font-size="14.00">len</text>
</g>
<!-- 3&#45;&gt;4 -->
<g id="edge2" class="edge">
<title>3&#45;&gt;4</title>
<path fill="none" stroke="black" stroke-dasharray="5,2" d="M576.14,-420.76C547.01,-414.29 513.36,-404.93 484.5,-392 470.11,-385.55 455.52,-376.1 443.41,-367.29"/>
<polygon fill="black" stroke="black" points="445.17,-364.24 435.06,-361.04 440.97,-369.84 445.17,-364.24"/>
<text text-anchor="middle" x="505.5" y="-380.8" font-family="DejaVu Sans Mono" font-size="14.00">calls</text>
</g>
<!-- 5 -->
<g id="node5" class="node">
<title>5</title>
<polygon fill="#e552ff" stroke="#e552ff" points="513.5,-361 471.5,-361 471.5,-365 459.5,-365 459.5,-325 513.5,-325 513.5,-361"/>
<polyline fill="none" stroke="#e552ff" points="459.5,-361 471.5,-361 "/>
<text text-anchor="middle" x="486.5" y="-339.3" font-family="DejaVu Sans Mono" font-size="14.00">len</text>
</g>
<!-- 3&#45;&gt;5 -->
<g id="edge3" class="edge">
<title>3&#45;&gt;5</title>
<path fill="none" stroke="black" stroke-dasharray="5,2" d="M611.72,-418.24C585.1,-406.36 547.92,-388.48 517.5,-369 516.57,-368.4 515.63,-367.78 514.7,-367.15"/>
<polygon fill="black" stroke="black" points="516.51,-364.14 506.37,-361.07 512.38,-369.79 516.51,-364.14"/>
<text text-anchor="middle" x="575.5" y="-380.8" font-family="DejaVu Sans Mono" font-size="14.00">calls</text>
</g>
<!-- 6 -->
<g id="node6" class="node">
<title>6</title>
<polygon fill="#98fb98" stroke="black" points="1061.73,-348.56 796.5,-361 531.27,-348.56 531.52,-328.44 1061.48,-328.44 1061.73,-348.56"/>
<text text-anchor="middle" x="796.5" y="-339.3" font-family="DejaVu Sans Mono" font-size="14.00">raise Exception(&#39;Not a square matrix&#39;)</text>
</g>
<!-- 3&#45;&gt;6 -->
<g id="edge4" class="edge">
<title>3&#45;&gt;6</title>
<path fill="none" stroke="green" d="M672.29,-417.7C696.74,-403.19 733.7,-381.26 760.95,-365.09"/>
<polygon fill="green" stroke="green" points="762.97,-367.96 769.79,-359.85 759.4,-361.94 762.97,-367.96"/>
<text text-anchor="middle" x="858.5" y="-380.8" font-family="DejaVu Sans Mono" font-size="14.00">len(matrix[0]) != len(matrix)</text>
</g>
<!-- 7 -->
<g id="node7" class="node">
<title>7</title>
<polygon fill="#ff6752" stroke="black" points="1428.5,-361 1079.44,-343 1428.5,-325 1777.56,-343 1428.5,-361"/>
<text text-anchor="middle" x="1428.5" y="-339.3" font-family="DejaVu Sans Mono" font-size="14.00">if len(matrix[0]) == 1 and len(matrix) == 1:</text>
</g>
<!-- 3&#45;&gt;7 -->
<g id="edge12" class="edge">
<title>3&#45;&gt;7</title>
<path fill="none" stroke="red" d="M740.44,-422.31C884.78,-405.88 1160.65,-374.48 1315.63,-356.85"/>
<polygon fill="red" stroke="red" points="1316.12,-360.31 1325.66,-355.7 1315.33,-353.36 1316.12,-360.31"/>
<text text-anchor="middle" x="1258.5" y="-380.8" font-family="DejaVu Sans Mono" font-size="14.00">(len(matrix[0]) == len(matrix))</text>
</g>
<!-- 9 -->
<g id="node8" class="node">
<title>9</title>
<polygon fill="#98fb98" stroke="black" points="1137.08,-286 961.17,-286 915.92,-250 1091.83,-250 1137.08,-286"/>
<text text-anchor="middle" x="1026.5" y="-264.3" font-family="DejaVu Sans Mono" font-size="14.00">return [[1]]</text>
</g>
<!-- 7&#45;&gt;9 -->
<g id="edge5" class="edge">
<title>7&#45;&gt;9</title>
<path fill="none" stroke="green" d="M1254.22,-333.96C1163.8,-328.51 1068.46,-320.23 1050.5,-309 1045.13,-305.64 1040.81,-300.61 1037.38,-295.23"/>
<polygon fill="green" stroke="green" points="1040.29,-293.24 1032.46,-286.1 1034.12,-296.56 1040.29,-293.24"/>
<text text-anchor="middle" x="1216" y="-297.8" font-family="DejaVu Sans Mono" font-size="14.00">len(matrix[0]) == 1 and len(matrix) == 1</text>
</g>
<!-- 10 -->
<g id="node9" class="node">
<title>10</title>
<polygon fill="#fffb81" stroke="black" points="1426,-286 1335,-286 1335,-250 1426,-250 1426,-286"/>
<text text-anchor="middle" x="1380.5" y="-264.3" font-family="DejaVu Sans Mono" font-size="14.00">rows = []</text>
</g>
<!-- 7&#45;&gt;10 -->
<g id="edge11" class="edge">
<title>7&#45;&gt;10</title>
<path fill="none" stroke="red" d="M1407.08,-325.84C1401.71,-320.93 1396.37,-315.18 1392.5,-309 1390.01,-305.02 1388.01,-300.5 1386.41,-295.96"/>
<polygon fill="red" stroke="red" points="1389.72,-294.8 1383.52,-286.2 1383,-296.78 1389.72,-294.8"/>
<text text-anchor="middle" x="1591" y="-297.8" font-family="DejaVu Sans Mono" font-size="14.00">(not (len(matrix[0]) == 1 and len(matrix) == 1))</text>
</g>
<!-- 12 -->
<g id="node10" class="node">
<title>12</title>
<polygon fill="#ffbe52" stroke="black" points="1646.85,-207 1513.67,-225 1247.33,-225 1114.15,-207 1247.33,-189 1513.67,-189 1646.85,-207"/>
<text text-anchor="middle" x="1380.5" y="-203.3" font-family="DejaVu Sans Mono" font-size="14.00">for row in (matrix[:i] + matrix[i + 1:]):</text>
</g>
<!-- 10&#45;&gt;12 -->
<g id="edge10" class="edge">
<title>10&#45;&gt;12</title>
<path fill="none" stroke="black" d="M1380.5,-249.93C1380.5,-245.45 1380.5,-240.49 1380.5,-235.61"/>
<polygon fill="black" stroke="black" points="1384,-235.23 1380.5,-225.23 1377,-235.23 1384,-235.23"/>
</g>
<!-- 13 -->
<g id="node11" class="node">
<title>13</title>
<polygon fill="#fffb81" stroke="black" points="1283,-158 986,-158 986,-122 1283,-122 1283,-158"/>
<text text-anchor="middle" x="1134.5" y="-136.3" font-family="DejaVu Sans Mono" font-size="14.00">rows.append(row[:j] + row[j + 1:])</text>
</g>
<!-- 12&#45;&gt;13 -->
<g id="edge8" class="edge">
<title>12&#45;&gt;13</title>
<path fill="none" stroke="green" d="M1196.57,-195.83C1163.34,-192.21 1137.27,-187.38 1131.5,-181 1128.31,-177.48 1127.04,-172.99 1126.88,-168.31"/>
<polygon fill="green" stroke="green" points="1130.4,-168.35 1128.02,-158.03 1123.44,-167.58 1130.4,-168.35"/>
<text text-anchor="middle" x="1251.5" y="-169.8" font-family="DejaVu Sans Mono" font-size="14.00">(matrix[:i] + matrix[i + 1:])</text>
</g>
<!-- 14 -->
<g id="node13" class="node">
<title>14</title>
<polygon fill="#98fb98" stroke="black" points="1504.43,-158 1342.28,-158 1300.57,-122 1462.72,-122 1504.43,-158"/>
<text text-anchor="middle" x="1402.5" y="-136.3" font-family="DejaVu Sans Mono" font-size="14.00">return rows</text>
</g>
<!-- 12&#45;&gt;14 -->
<g id="edge9" class="edge">
<title>12&#45;&gt;14</title>
<path fill="none" stroke="green" d="M1386.28,-188.92C1388.44,-182.55 1390.94,-175.16 1393.33,-168.11"/>
<polygon fill="green" stroke="green" points="1396.79,-168.78 1396.68,-158.19 1390.16,-166.54 1396.79,-168.78"/>
</g>
<!-- 13&#45;&gt;12 -->
<g id="edge7" class="edge">
<title>13&#45;&gt;12</title>
<path fill="none" stroke="black" d="M1283.24,-157.16C1286.02,-157.44 1288.77,-157.72 1291.5,-158 1300.83,-158.95 1368.77,-159.47 1375.5,-166 1378.93,-169.33 1380.88,-173.72 1381.9,-178.38"/>
<polygon fill="black" stroke="black" points="1378.45,-179.05 1382.87,-188.68 1385.42,-178.39 1378.45,-179.05"/>
</g>
<!-- 15 -->
<g id="node12" class="node">
<title>15</title>
<polygon fill="#e552ff" stroke="#e552ff" points="1188,-83 1093,-83 1093,-87 1081,-87 1081,-47 1188,-47 1188,-83"/>
<polyline fill="none" stroke="#e552ff" points="1081,-83 1093,-83 "/>
<text text-anchor="middle" x="1134.5" y="-61.3" font-family="DejaVu Sans Mono" font-size="14.00">rows.append</text>
</g>
<!-- 13&#45;&gt;15 -->
<g id="edge6" class="edge">
<title>13&#45;&gt;15</title>
<path fill="none" stroke="black" stroke-dasharray="5,2" d="M1134.5,-121.7C1134.5,-113.25 1134.5,-102.87 1134.5,-93.37"/>
<polygon fill="black" stroke="black" points="1138,-93.18 1134.5,-83.18 1131,-93.18 1138,-93.18"/>
<text text-anchor="middle" x="1155.5" y="-102.8" font-family="DejaVu Sans Mono" font-size="14.00">calls</text>
</g>
<!-- input -->
<g id="node14" class="node">
<title>input</title>
<polygon fill="#afeeee" stroke="black" points="2166.54,-361 2078.98,-361 2056.46,-325 2144.02,-325 2166.54,-361"/>
<text text-anchor="middle" x="2111.5" y="-339.3" font-family="DejaVu Sans Mono" font-size="14.00">input</text>
</g>
<!-- call -->
<g id="node19" class="node">
<title>call</title>
<polygon fill="#e552ff" stroke="black" points="2138.5,-286 2096.5,-286 2096.5,-290 2084.5,-290 2084.5,-250 2138.5,-250 2138.5,-286"/>
<polyline fill="none" stroke="black" points="2084.5,-286 2096.5,-286 "/>
<text text-anchor="middle" x="2111.5" y="-264.3" font-family="DejaVu Sans Mono" font-size="14.00">call</text>
</g>
<!-- input&#45;&gt;call -->
<!-- default -->
<g id="node15" class="node">
<title>default</title>
<polygon fill="#fffb81" stroke="black" points="2012.5,-286 1938.5,-286 1938.5,-250 2012.5,-250 2012.5,-286"/>
<text text-anchor="middle" x="1975.5" y="-264.3" font-family="DejaVu Sans Mono" font-size="14.00">default</text>
</g>
<!-- if -->
<g id="node16" class="node">
<title>if</title>
<polygon fill="#ff6752" stroke="black" points="2111.5,-452 2081.33,-434 2111.5,-416 2141.67,-434 2111.5,-452"/>
<text text-anchor="middle" x="2111.5" y="-430.3" font-family="DejaVu Sans Mono" font-size="14.00">if</text>
</g>
<!-- if&#45;&gt;input -->
<!-- for -->
<g id="node17" class="node">
<title>for</title>
<polygon fill="#ffbe52" stroke="black" points="2062.04,-434 2046.77,-452 2016.23,-452 2000.96,-434 2016.23,-416 2046.77,-416 2062.04,-434"/>
<text text-anchor="middle" x="2031.5" y="-430.3" font-family="DejaVu Sans Mono" font-size="14.00">for</text>
</g>
<!-- return -->
<g id="node20" class="node">
<title>return</title>
<polygon fill="#98fb98" stroke="black" points="2038.29,-361 1938.41,-361 1912.71,-325 2012.59,-325 2038.29,-361"/>
<text text-anchor="middle" x="1975.5" y="-339.3" font-family="DejaVu Sans Mono" font-size="14.00">return</text>
</g>
<!-- for&#45;&gt;return -->
<!-- while -->
<g id="node18" class="node">
<title>while</title>
<polygon fill="#ffbe52" stroke="black" points="1983.06,-434 1961.28,-452 1917.72,-452 1895.94,-434 1917.72,-416 1961.28,-416 1983.06,-434"/>
<text text-anchor="middle" x="1939.5" y="-430.3" font-family="DejaVu Sans Mono" font-size="14.00">while</text>
</g>
<!-- return&#45;&gt;default -->
<!-- try -->
<g id="node21" class="node">
<title>try</title>
<polygon fill="orange" stroke="black" points="1840.5,-452 1802.63,-434 1840.5,-416 1878.37,-434 1840.5,-452"/>
<polyline fill="none" stroke="black" points="1813.47,-439.15 1813.47,-428.85 "/>
<polyline fill="none" stroke="black" points="1829.66,-421.15 1851.34,-421.15 "/>
<polyline fill="none" stroke="black" points="1867.53,-428.85 1867.53,-439.15 "/>
<polyline fill="none" stroke="black" points="1851.34,-446.85 1829.66,-446.85 "/>
<text text-anchor="middle" x="1840.5" y="-430.3" font-family="DejaVu Sans Mono" font-size="14.00">try</text>
</g>
<!-- raise -->
<g id="node22" class="node">
<title>raise</title>
<polygon fill="#98fb98" stroke="black" points="1895.19,-348.56 1848.5,-361 1801.81,-348.56 1801.85,-328.44 1895.15,-328.44 1895.19,-348.56"/>
<text text-anchor="middle" x="1848.5" y="-339.3" font-family="DejaVu Sans Mono" font-size="14.00">raise</text>
</g>
<!-- try&#45;&gt;raise -->
</g>
</svg>
