<?xml version="1.0" encoding="UTF-8" standalone="no"?>
<!DOCTYPE svg PUBLIC "-//W3C//DTD SVG 1.1//EN"
 "http://www.w3.org/Graphics/SVG/1.1/DTD/svg11.dtd">
<!-- Generated by graphviz version 2.43.0 (0)
 -->
<!-- Title: cluster0matrix_ops.py Pages: 1 -->
<svg width="3594pt" height="842pt"
 viewBox="0.00 0.00 3593.50 842.00" xmlns="http://www.w3.org/2000/svg" xmlns:xlink="http://www.w3.org/1999/xlink">
<g id="graph0" class="graph" transform="scale(1 1) rotate(0) translate(4 838)">
<title>cluster0matrix_ops.py</title>
<polygon fill="white" stroke="transparent" points="-4,4 -4,-838 3589.5,-838 3589.5,4 -4,4"/>
<text text-anchor="middle" x="1792.75" y="-7.8" font-family="DejaVu Sans Mono" font-size="14.00">matrix_ops.py</text>
<g id="clust1" class="cluster">
<title>cluster_1</title>
<polygon fill="purple" stroke="purple" points="64.5,-31 64.5,-160 637.5,-160 637.5,-31 64.5,-31"/>
</g>
<g id="clust2" class="cluster">
<title>cluster0ScalarOperations</title>
<polygon fill="none" stroke="black" points="702.5,-92 702.5,-637.5 3188.5,-637.5 3188.5,-92 702.5,-92"/>
<text text-anchor="middle" x="1945.5" y="-622.3" font-family="DejaVu Sans Mono" font-size="14.00">ScalarOperations</text>
</g>
<g id="clust3" class="cluster">
<title>cluster0__init__</title>
<polygon fill="none" stroke="black" points="2892.5,-100 2892.5,-577.5 3180.5,-577.5 3180.5,-100 2892.5,-100"/>
<text text-anchor="middle" x="3036.5" y="-562.3" font-family="DejaVu Sans Mono" font-size="14.00">__init__</text>
</g>
<g id="clust4" class="cluster">
<title>cluster_5</title>
<polygon fill="purple" stroke="purple" points="2965.5,-108 2965.5,-160 3107.5,-160 3107.5,-108 2965.5,-108"/>
</g>
<g id="clust5" class="cluster">
<title>cluster0addition</title>
<polygon fill="none" stroke="black" points="2522.5,-100 2522.5,-562.5 2884.5,-562.5 2884.5,-100 2522.5,-100"/>
<text text-anchor="middle" x="2703.5" y="-547.3" font-family="DejaVu Sans Mono" font-size="14.00">addition</text>
</g>
<g id="clust6" class="cluster">
<title>cluster_10</title>
<polygon fill="purple" stroke="purple" points="2530.5,-108 2530.5,-160 2630.5,-160 2630.5,-108 2530.5,-108"/>
</g>
<g id="clust7" class="cluster">
<title>cluster0subtraction</title>
<polygon fill="none" stroke="black" points="2152.5,-100 2152.5,-562.5 2514.5,-562.5 2514.5,-100 2152.5,-100"/>
<text text-anchor="middle" x="2333.5" y="-547.3" font-family="DejaVu Sans Mono" font-size="14.00">subtraction</text>
</g>
<g id="clust8" class="cluster">
<title>cluster_16</title>
<polygon fill="purple" stroke="purple" points="2160.5,-108 2160.5,-160 2260.5,-160 2260.5,-108 2160.5,-108"/>
</g>
<g id="clust9" class="cluster">
<title>cluster0multiplication</title>
<polygon fill="none" stroke="black" points="1782.5,-100 1782.5,-562.5 2144.5,-562.5 2144.5,-100 1782.5,-100"/>
<text text-anchor="middle" x="1963.5" y="-547.3" font-family="DejaVu Sans Mono" font-size="14.00">multiplication</text>
</g>
<g id="clust10" class="cluster">
<title>cluster_22</title>
<polygon fill="purple" stroke="purple" points="1790.5,-108 1790.5,-160 1890.5,-160 1890.5,-108 1790.5,-108"/>
</g>
<g id="clust11" class="cluster">
<title>cluster0division</title>
<polygon fill="none" stroke="black" points="1412.5,-100 1412.5,-562.5 1774.5,-562.5 1774.5,-100 1412.5,-100"/>
<text text-anchor="middle" x="1593.5" y="-547.3" font-family="DejaVu Sans Mono" font-size="14.00">division</text>
</g>
<g id="clust12" class="cluster">
<title>cluster_28</title>
<polygon fill="purple" stroke="purple" points="1420.5,-108 1420.5,-160 1520.5,-160 1520.5,-108 1420.5,-108"/>
</g>
<g id="clust13" class="cluster">
<title>cluster_KEY</title>
<polygon fill="none" stroke="black" points="3196.5,-31 3196.5,-561.5 3577.5,-561.5 3577.5,-31 3196.5,-31"/>
<text text-anchor="middle" x="3387" y="-546.3" font-family="DejaVu Sans Mono" font-size="14.00">KEY</text>
</g>
<!-- 1 -->
<g id="node1" class="node">
<title>1</title>
<polygon fill="#fffb81" stroke="black" points="693,-834 0,-834 0,-191 693,-191 693,-834"/>
<text text-anchor="start" x="8" y="-818.8" font-family="DejaVu Sans Mono" font-size="14.00">import numpy as np</text>
<text text-anchor="start" x="8" y="-803.8" font-family="DejaVu Sans Mono" font-size="14.00">class ScalarOperations:</text>
<text text-anchor="start" x="8" y="-788.8" font-family="DejaVu Sans Mono" font-size="14.00"> &#160;&#160;&#160;&quot;&quot;&quot;</text>
<text text-anchor="start" x="8" y="-773.8" font-family="DejaVu Sans Mono" font-size="14.00"> &#160;&#160;&#160;Class that consists of operations performed to scalar + matrix</text>
<text text-anchor="start" x="8" y="-758.8" font-family="DejaVu Sans Mono" font-size="14.00"> &#160;&#160;&#160;@method scalar addition: adds a scalar to all entities of a matrix</text>
<text text-anchor="start" x="8" y="-743.8" font-family="DejaVu Sans Mono" font-size="14.00"> &#160;&#160;&#160;@method scalar subtraction: subtracts a scalar from all entities of a matrix</text>
<text text-anchor="start" x="8" y="-728.8" font-family="DejaVu Sans Mono" font-size="14.00"> &#160;&#160;&#160;@method scalar multiplication: multiplies a scalar to all entities of a matrix</text>
<text text-anchor="start" x="8" y="-713.8" font-family="DejaVu Sans Mono" font-size="14.00"> &#160;&#160;&#160;@method scalar division: divides a scalar from all entities of a matrix</text>
<text text-anchor="start" x="8" y="-698.8" font-family="DejaVu Sans Mono" font-size="14.00"> &#160;&#160;&#160;&quot;&quot;&quot;</text>
<text text-anchor="start" x="8" y="-667.8" font-family="DejaVu Sans Mono" font-size="14.00"> &#160;&#160;&#160;def __init__(self, matrix, scalar):</text>
<text text-anchor="start" x="8" y="-652.8" font-family="DejaVu Sans Mono" font-size="14.00"> &#160;&#160;&#160;&#160;&#160;&#160;&#160;self.matrix = matrix</text>
<text text-anchor="start" x="8" y="-637.8" font-family="DejaVu Sans Mono" font-size="14.00"> &#160;&#160;&#160;&#160;&#160;&#160;&#160;self.scalar = scalar</text>
<text text-anchor="start" x="8" y="-622.8" font-family="DejaVu Sans Mono" font-size="14.00"> &#160;&#160;&#160;&#160;&#160;&#160;&#160;self.rows = len(self.matrix)</text>
<text text-anchor="start" x="8" y="-607.8" font-family="DejaVu Sans Mono" font-size="14.00"> &#160;&#160;&#160;&#160;&#160;&#160;&#160;self.cols = len(self.matrix[0])</text>
<text text-anchor="start" x="8" y="-576.8" font-family="DejaVu Sans Mono" font-size="14.00"> &#160;&#160;&#160;def addition(self):</text>
<text text-anchor="start" x="8" y="-561.8" font-family="DejaVu Sans Mono" font-size="14.00"> &#160;&#160;&#160;&#160;&#160;&#160;&#160;result = np.array(self.matrix)</text>
<text text-anchor="start" x="8" y="-546.8" font-family="DejaVu Sans Mono" font-size="14.00"> &#160;&#160;&#160;&#160;&#160;&#160;&#160;result[:] += self.scalar</text>
<text text-anchor="start" x="8" y="-531.8" font-family="DejaVu Sans Mono" font-size="14.00"> &#160;&#160;&#160;&#160;&#160;&#160;&#160;return result</text>
<text text-anchor="start" x="8" y="-500.8" font-family="DejaVu Sans Mono" font-size="14.00"> &#160;&#160;&#160;def subtraction(self):</text>
<text text-anchor="start" x="8" y="-485.8" font-family="DejaVu Sans Mono" font-size="14.00"> &#160;&#160;&#160;&#160;&#160;&#160;&#160;result = np.array(self.matrix)</text>
<text text-anchor="start" x="8" y="-470.8" font-family="DejaVu Sans Mono" font-size="14.00"> &#160;&#160;&#160;&#160;&#160;&#160;&#160;result[:] &#45;= self.scalar</text>
<text text-anchor="start" x="8" y="-455.8" font-family="DejaVu Sans Mono" font-size="14.00"> &#160;&#160;&#160;&#160;&#160;&#160;&#160;return result</text>
<text text-anchor="start" x="8" y="-424.8" font-family="DejaVu Sans Mono" font-size="14.00"> &#160;&#160;&#160;def multiplication(self):</text>
<text text-anchor="start" x="8" y="-409.8" font-family="DejaVu Sans Mono" font-size="14.00"> &#160;&#160;&#160;&#160;&#160;&#160;&#160;result = np.array(self.matrix)</text>
<text text-anchor="start" x="8" y="-394.8" font-family="DejaVu Sans Mono" font-size="14.00"> &#160;&#160;&#160;&#160;&#160;&#160;&#160;result[:] *= self.scalar</text>
<text text-anchor="start" x="8" y="-379.8" font-family="DejaVu Sans Mono" font-size="14.00"> &#160;&#160;&#160;&#160;&#160;&#160;&#160;return result</text>
<text text-anchor="start" x="8" y="-348.8" font-family="DejaVu Sans Mono" font-size="14.00"> &#160;&#160;&#160;def division(self):</text>
<text text-anchor="start" x="8" y="-333.8" font-family="DejaVu Sans Mono" font-size="14.00"> &#160;&#160;&#160;&#160;&#160;&#160;&#160;result = np.array(self.matrix)</text>
<text text-anchor="start" x="8" y="-318.8" font-family="DejaVu Sans Mono" font-size="14.00"> &#160;&#160;&#160;&#160;&#160;&#160;&#160;result = result / self.scalar</text>
<text text-anchor="start" x="8" y="-303.8" font-family="DejaVu Sans Mono" font-size="14.00"> &#160;&#160;&#160;&#160;&#160;&#160;&#160;return result</text>
<text text-anchor="start" x="8" y="-288.8" font-family="DejaVu Sans Mono" font-size="14.00">matrix = [[1, 2, 3], [4, 5, 6], [7, 8, 9]]</text>
<text text-anchor="start" x="8" y="-273.8" font-family="DejaVu Sans Mono" font-size="14.00">scalar = 5</text>
<text text-anchor="start" x="8" y="-258.8" font-family="DejaVu Sans Mono" font-size="14.00">so = ScalarOperations(matrix, scalar)</text>
<text text-anchor="start" x="8" y="-243.8" font-family="DejaVu Sans Mono" font-size="14.00">print(so.addition())</text>
<text text-anchor="start" x="8" y="-228.8" font-family="DejaVu Sans Mono" font-size="14.00">print(so.subtraction())</text>
<text text-anchor="start" x="8" y="-213.8" font-family="DejaVu Sans Mono" font-size="14.00">print(so.multiplication())</text>
<text text-anchor="middle" x="346.5" y="-198.8" font-family="DejaVu Sans Mono" font-size="14.00">print(so.division())</text>
</g>
<!-- 34 -->
<g id="node2" class="node">
<title>34</title>
<polygon fill="#e552ff" stroke="#e552ff" points="224,-152 87,-152 87,-156 75,-156 75,-116 224,-116 224,-152"/>
<polyline fill="none" stroke="#e552ff" points="75,-152 87,-152 "/>
<text text-anchor="middle" x="149.5" y="-130.3" font-family="DejaVu Sans Mono" font-size="14.00">ScalarOperations</text>
</g>
<!-- 1&#45;&gt;34 -->
<g id="edge1" class="edge">
<title>1&#45;&gt;34</title>
<path fill="none" stroke="black" stroke-dasharray="5,2" d="M178.78,-190.96C172.84,-179.61 167.58,-169.55 163.21,-161.21"/>
<polygon fill="black" stroke="black" points="166.25,-159.46 158.51,-152.23 160.05,-162.71 166.25,-159.46"/>
<text text-anchor="middle" x="195.5" y="-171.8" font-family="DejaVu Sans Mono" font-size="14.00">calls</text>
</g>
<!-- 35 -->
<g id="node3" class="node">
<title>35</title>
<polygon fill="#e552ff" stroke="#e552ff" points="299.5,-152 253.5,-152 253.5,-156 241.5,-156 241.5,-116 299.5,-116 299.5,-152"/>
<polyline fill="none" stroke="#e552ff" points="241.5,-152 253.5,-152 "/>
<text text-anchor="middle" x="270.5" y="-130.3" font-family="DejaVu Sans Mono" font-size="14.00">print</text>
</g>
<!-- 1&#45;&gt;35 -->
<g id="edge2" class="edge">
<title>1&#45;&gt;35</title>
<path fill="none" stroke="black" stroke-dasharray="5,2" d="M281.8,-190.96C279.58,-179.98 277.61,-170.21 275.96,-162.03"/>
<polygon fill="black" stroke="black" points="279.39,-161.34 273.98,-152.23 272.53,-162.72 279.39,-161.34"/>
<text text-anchor="middle" x="301.5" y="-171.8" font-family="DejaVu Sans Mono" font-size="14.00">calls</text>
</g>
<!-- 37 -->
<g id="node4" class="node">
<title>37</title>
<polygon fill="#e552ff" stroke="#e552ff" points="375.5,-152 329.5,-152 329.5,-156 317.5,-156 317.5,-116 375.5,-116 375.5,-152"/>
<polyline fill="none" stroke="#e552ff" points="317.5,-152 329.5,-152 "/>
<text text-anchor="middle" x="346.5" y="-130.3" font-family="DejaVu Sans Mono" font-size="14.00">print</text>
</g>
<!-- 1&#45;&gt;37 -->
<g id="edge3" class="edge">
<title>1&#45;&gt;37</title>
<path fill="none" stroke="black" stroke-dasharray="5,2" d="M346.5,-190.96C346.5,-180.1 346.5,-170.43 346.5,-162.31"/>
<polygon fill="black" stroke="black" points="350,-162.23 346.5,-152.23 343,-162.23 350,-162.23"/>
<text text-anchor="middle" x="367.5" y="-171.8" font-family="DejaVu Sans Mono" font-size="14.00">calls</text>
</g>
<!-- 39 -->
<g id="node5" class="node">
<title>39</title>
<polygon fill="#e552ff" stroke="#e552ff" points="453.5,-152 407.5,-152 407.5,-156 395.5,-156 395.5,-116 453.5,-116 453.5,-152"/>
<polyline fill="none" stroke="#e552ff" points="395.5,-152 407.5,-152 "/>
<text text-anchor="middle" x="424.5" y="-130.3" font-family="DejaVu Sans Mono" font-size="14.00">print</text>
</g>
<!-- 1&#45;&gt;39 -->
<g id="edge4" class="edge">
<title>1&#45;&gt;39</title>
<path fill="none" stroke="black" stroke-dasharray="5,2" d="M412.91,-190.96C415.18,-179.98 417.21,-170.21 418.9,-162.03"/>
<polygon fill="black" stroke="black" points="422.33,-162.73 420.93,-152.23 415.48,-161.31 422.33,-162.73"/>
<text text-anchor="middle" x="437.5" y="-171.8" font-family="DejaVu Sans Mono" font-size="14.00">calls</text>
</g>
<!-- 41 -->
<g id="node6" class="node">
<title>41</title>
<polygon fill="#e552ff" stroke="#e552ff" points="567.5,-152 521.5,-152 521.5,-156 509.5,-156 509.5,-116 567.5,-116 567.5,-152"/>
<polyline fill="none" stroke="#e552ff" points="509.5,-152 521.5,-152 "/>
<text text-anchor="middle" x="538.5" y="-130.3" font-family="DejaVu Sans Mono" font-size="14.00">print</text>
</g>
<!-- 1&#45;&gt;41 -->
<g id="edge5" class="edge">
<title>1&#45;&gt;41</title>
<path fill="none" stroke="black" stroke-dasharray="5,2" d="M509.96,-190.96C515.75,-179.61 520.88,-169.55 525.13,-161.21"/>
<polygon fill="black" stroke="black" points="528.29,-162.72 529.72,-152.23 522.05,-159.54 528.29,-162.72"/>
<text text-anchor="middle" x="539.5" y="-171.8" font-family="DejaVu Sans Mono" font-size="14.00">calls</text>
</g>
<!-- 36 -->
<g id="node7" class="node">
<title>36</title>
<polygon fill="#e552ff" stroke="#e552ff" points="179,-75 84,-75 84,-79 72,-79 72,-39 179,-39 179,-75"/>
<polyline fill="none" stroke="#e552ff" points="72,-75 84,-75 "/>
<text text-anchor="middle" x="125.5" y="-53.3" font-family="DejaVu Sans Mono" font-size="14.00">so.addition</text>
</g>
<!-- 35&#45;&gt;36 -->
<g id="edge6" class="edge">
<title>35&#45;&gt;36</title>
<path fill="none" stroke="black" d="M258.05,-115.86C251.3,-107.64 242.33,-98.24 232.5,-92 224.51,-86.93 207.2,-80.82 188.77,-75.18"/>
<polygon fill="black" stroke="black" points="189.67,-71.79 179.08,-72.28 187.66,-78.5 189.67,-71.79"/>
</g>
<!-- 38 -->
<g id="node8" class="node">
<title>38</title>
<polygon fill="#e552ff" stroke="#e552ff" points="329.5,-75 209.5,-75 209.5,-79 197.5,-79 197.5,-39 329.5,-39 329.5,-75"/>
<polyline fill="none" stroke="#e552ff" points="197.5,-75 209.5,-75 "/>
<text text-anchor="middle" x="263.5" y="-53.3" font-family="DejaVu Sans Mono" font-size="14.00">so.subtraction</text>
</g>
<!-- 37&#45;&gt;38 -->
<g id="edge7" class="edge">
<title>37&#45;&gt;38</title>
<path fill="none" stroke="black" d="M331.97,-116C325.14,-108.36 316.71,-99.42 308.5,-92 304.61,-88.48 300.37,-84.94 296.1,-81.55"/>
<polygon fill="black" stroke="black" points="298,-78.59 287.95,-75.24 293.72,-84.13 298,-78.59"/>
</g>
<!-- 40 -->
<g id="node9" class="node">
<title>40</title>
<polygon fill="#e552ff" stroke="#e552ff" points="505,-75 360,-75 360,-79 348,-79 348,-39 505,-39 505,-75"/>
<polyline fill="none" stroke="#e552ff" points="348,-75 360,-75 "/>
<text text-anchor="middle" x="426.5" y="-53.3" font-family="DejaVu Sans Mono" font-size="14.00">so.multiplication</text>
</g>
<!-- 39&#45;&gt;40 -->
<g id="edge8" class="edge">
<title>39&#45;&gt;40</title>
<path fill="none" stroke="black" d="M424.95,-115.98C425.2,-106.94 425.5,-95.6 425.77,-85.35"/>
<polygon fill="black" stroke="black" points="429.27,-85.3 426.04,-75.21 422.28,-85.11 429.27,-85.3"/>
</g>
<!-- 42 -->
<g id="node10" class="node">
<title>42</title>
<polygon fill="#e552ff" stroke="#e552ff" points="630,-75 535,-75 535,-79 523,-79 523,-39 630,-39 630,-75"/>
<polyline fill="none" stroke="#e552ff" points="523,-75 535,-75 "/>
<text text-anchor="middle" x="576.5" y="-53.3" font-family="DejaVu Sans Mono" font-size="14.00">so.division</text>
</g>
<!-- 41&#45;&gt;42 -->
<g id="edge9" class="edge">
<title>41&#45;&gt;42</title>
<path fill="none" stroke="black" d="M547.12,-115.98C551.85,-106.65 557.82,-94.88 563.13,-84.38"/>
<polygon fill="black" stroke="black" points="566.38,-85.71 567.78,-75.21 560.14,-82.55 566.38,-85.71"/>
</g>
<!-- 3 -->
<g id="node11" class="node">
<title>3</title>
<polygon fill="#fffb81" stroke="black" points="1404,-606.5 711,-606.5 711,-418.5 1404,-418.5 1404,-606.5"/>
<text text-anchor="start" x="719" y="-591.3" font-family="DejaVu Sans Mono" font-size="14.00">&quot;&quot;&quot;</text>
<text text-anchor="start" x="719" y="-576.3" font-family="DejaVu Sans Mono" font-size="14.00"> &#160;&#160;&#160;Class that consists of operations performed to scalar + matrix</text>
<text text-anchor="start" x="719" y="-561.3" font-family="DejaVu Sans Mono" font-size="14.00"> &#160;&#160;&#160;@method scalar addition: adds a scalar to all entities of a matrix</text>
<text text-anchor="start" x="719" y="-546.3" font-family="DejaVu Sans Mono" font-size="14.00"> &#160;&#160;&#160;@method scalar subtraction: subtracts a scalar from all entities of a matrix</text>
<text text-anchor="start" x="719" y="-531.3" font-family="DejaVu Sans Mono" font-size="14.00"> &#160;&#160;&#160;@method scalar multiplication: multiplies a scalar to all entities of a matrix</text>
<text text-anchor="start" x="719" y="-516.3" font-family="DejaVu Sans Mono" font-size="14.00"> &#160;&#160;&#160;@method scalar division: divides a scalar from all entities of a matrix</text>
<text text-anchor="start" x="719" y="-501.3" font-family="DejaVu Sans Mono" font-size="14.00"> &#160;&#160;&#160;&quot;&quot;&quot;</text>
<text text-anchor="start" x="719" y="-486.3" font-family="DejaVu Sans Mono" font-size="14.00">def __init__(self, matrix, scalar):...</text>
<text text-anchor="start" x="719" y="-471.3" font-family="DejaVu Sans Mono" font-size="14.00">def addition(self):...</text>
<text text-anchor="start" x="719" y="-456.3" font-family="DejaVu Sans Mono" font-size="14.00">def subtraction(self):...</text>
<text text-anchor="start" x="719" y="-441.3" font-family="DejaVu Sans Mono" font-size="14.00">def multiplication(self):...</text>
<text text-anchor="middle" x="1057.5" y="-426.3" font-family="DejaVu Sans Mono" font-size="14.00">def division(self):...</text>
</g>
<!-- 5 -->
<g id="node12" class="node">
<title>5</title>
<polygon fill="#fffb81" stroke="black" points="3172.5,-546.5 2900.5,-546.5 2900.5,-478.5 3172.5,-478.5 3172.5,-546.5"/>
<text text-anchor="start" x="2908.5" y="-531.3" font-family="DejaVu Sans Mono" font-size="14.00">self.matrix = matrix</text>
<text text-anchor="start" x="2908.5" y="-516.3" font-family="DejaVu Sans Mono" font-size="14.00">self.scalar = scalar</text>
<text text-anchor="start" x="2908.5" y="-501.3" font-family="DejaVu Sans Mono" font-size="14.00">self.rows = len(self.matrix)</text>
<text text-anchor="middle" x="3036.5" y="-486.3" font-family="DejaVu Sans Mono" font-size="14.00">self.cols = len(self.matrix[0])</text>
</g>
<!-- 6 -->
<g id="node13" class="node">
<title>6</title>
<polygon fill="#e552ff" stroke="#e552ff" points="3027.5,-152 2985.5,-152 2985.5,-156 2973.5,-156 2973.5,-116 3027.5,-116 3027.5,-152"/>
<polyline fill="none" stroke="#e552ff" points="2973.5,-152 2985.5,-152 "/>
<text text-anchor="middle" x="3000.5" y="-130.3" font-family="DejaVu Sans Mono" font-size="14.00">len</text>
</g>
<!-- 5&#45;&gt;6 -->
<g id="edge10" class="edge">
<title>5&#45;&gt;6</title>
<path fill="none" stroke="black" stroke-dasharray="5,2" d="M3033.34,-478.42C3026.33,-405.16 3009.62,-230.37 3003.13,-162.55"/>
<polygon fill="black" stroke="black" points="3006.59,-161.88 3002.15,-152.26 2999.62,-162.55 3006.59,-161.88"/>
<text text-anchor="middle" x="3025.5" y="-171.8" font-family="DejaVu Sans Mono" font-size="14.00">calls</text>
</g>
<!-- 7 -->
<g id="node14" class="node">
<title>7</title>
<polygon fill="#e552ff" stroke="#e552ff" points="3099.5,-152 3057.5,-152 3057.5,-156 3045.5,-156 3045.5,-116 3099.5,-116 3099.5,-152"/>
<polyline fill="none" stroke="#e552ff" points="3045.5,-152 3057.5,-152 "/>
<text text-anchor="middle" x="3072.5" y="-130.3" font-family="DejaVu Sans Mono" font-size="14.00">len</text>
</g>
<!-- 5&#45;&gt;7 -->
<g id="edge11" class="edge">
<title>5&#45;&gt;7</title>
<path fill="none" stroke="black" stroke-dasharray="5,2" d="M3039.66,-478.42C3046.67,-405.16 3063.38,-230.37 3069.87,-162.55"/>
<polygon fill="black" stroke="black" points="3073.38,-162.55 3070.85,-152.26 3066.41,-161.88 3073.38,-162.55"/>
<text text-anchor="middle" x="3089.5" y="-171.8" font-family="DejaVu Sans Mono" font-size="14.00">calls</text>
</g>
<!-- 10 -->
<g id="node15" class="node">
<title>10</title>
<polygon fill="#fffb81" stroke="black" points="2835.5,-531.5 2571.5,-531.5 2571.5,-493.5 2835.5,-493.5 2835.5,-531.5"/>
<text text-anchor="start" x="2579.5" y="-516.3" font-family="DejaVu Sans Mono" font-size="14.00">result = np.array(self.matrix)</text>
<text text-anchor="middle" x="2703.5" y="-501.3" font-family="DejaVu Sans Mono" font-size="14.00">result[:] += self.scalar</text>
</g>
<!-- 11 -->
<g id="node16" class="node">
<title>11</title>
<polygon fill="#e552ff" stroke="#e552ff" points="2622,-152 2551,-152 2551,-156 2539,-156 2539,-116 2622,-116 2622,-152"/>
<polyline fill="none" stroke="#e552ff" points="2539,-152 2551,-152 "/>
<text text-anchor="middle" x="2580.5" y="-130.3" font-family="DejaVu Sans Mono" font-size="14.00">np.array</text>
</g>
<!-- 10&#45;&gt;11 -->
<g id="edge12" class="edge">
<title>10&#45;&gt;11</title>
<path fill="none" stroke="black" stroke-dasharray="5,2" d="M2697.57,-493.34C2677.63,-432.3 2612.93,-234.28 2589.27,-161.85"/>
<polygon fill="black" stroke="black" points="2592.52,-160.53 2586.09,-152.11 2585.87,-162.7 2592.52,-160.53"/>
<text text-anchor="middle" x="2616.5" y="-171.8" font-family="DejaVu Sans Mono" font-size="14.00">calls</text>
</g>
<!-- 12 -->
<g id="node17" class="node">
<title>12</title>
<polygon fill="#98fb98" stroke="black" points="2876.83,-152 2688.59,-152 2640.17,-116 2828.41,-116 2876.83,-152"/>
<text text-anchor="middle" x="2758.5" y="-130.3" font-family="DejaVu Sans Mono" font-size="14.00">return result</text>
</g>
<!-- 10&#45;&gt;12 -->
<g id="edge13" class="edge">
<title>10&#45;&gt;12</title>
<path fill="none" stroke="black" d="M2706.15,-493.34C2715.05,-432.42 2743.88,-235.09 2754.51,-162.3"/>
<polygon fill="black" stroke="black" points="2758.02,-162.51 2756,-152.11 2751.09,-161.5 2758.02,-162.51"/>
</g>
<!-- 16 -->
<g id="node18" class="node">
<title>16</title>
<polygon fill="#fffb81" stroke="black" points="2465.5,-531.5 2201.5,-531.5 2201.5,-493.5 2465.5,-493.5 2465.5,-531.5"/>
<text text-anchor="start" x="2209.5" y="-516.3" font-family="DejaVu Sans Mono" font-size="14.00">result = np.array(self.matrix)</text>
<text text-anchor="middle" x="2333.5" y="-501.3" font-family="DejaVu Sans Mono" font-size="14.00">result[:] &#45;= self.scalar</text>
</g>
<!-- 17 -->
<g id="node19" class="node">
<title>17</title>
<polygon fill="#e552ff" stroke="#e552ff" points="2252,-152 2181,-152 2181,-156 2169,-156 2169,-116 2252,-116 2252,-152"/>
<polyline fill="none" stroke="#e552ff" points="2169,-152 2181,-152 "/>
<text text-anchor="middle" x="2210.5" y="-130.3" font-family="DejaVu Sans Mono" font-size="14.00">np.array</text>
</g>
<!-- 16&#45;&gt;17 -->
<g id="edge14" class="edge">
<title>16&#45;&gt;17</title>
<path fill="none" stroke="black" stroke-dasharray="5,2" d="M2327.57,-493.34C2307.63,-432.3 2242.93,-234.28 2219.27,-161.85"/>
<polygon fill="black" stroke="black" points="2222.52,-160.53 2216.09,-152.11 2215.87,-162.7 2222.52,-160.53"/>
<text text-anchor="middle" x="2246.5" y="-171.8" font-family="DejaVu Sans Mono" font-size="14.00">calls</text>
</g>
<!-- 18 -->
<g id="node20" class="node">
<title>18</title>
<polygon fill="#98fb98" stroke="black" points="2506.83,-152 2318.59,-152 2270.17,-116 2458.41,-116 2506.83,-152"/>
<text text-anchor="middle" x="2388.5" y="-130.3" font-family="DejaVu Sans Mono" font-size="14.00">return result</text>
</g>
<!-- 16&#45;&gt;18 -->
<g id="edge15" class="edge">
<title>16&#45;&gt;18</title>
<path fill="none" stroke="black" d="M2336.15,-493.34C2345.05,-432.42 2373.88,-235.09 2384.51,-162.3"/>
<polygon fill="black" stroke="black" points="2388.02,-162.51 2386,-152.11 2381.09,-161.5 2388.02,-162.51"/>
</g>
<!-- 22 -->
<g id="node21" class="node">
<title>22</title>
<polygon fill="#fffb81" stroke="black" points="2095.5,-531.5 1831.5,-531.5 1831.5,-493.5 2095.5,-493.5 2095.5,-531.5"/>
<text text-anchor="start" x="1839.5" y="-516.3" font-family="DejaVu Sans Mono" font-size="14.00">result = np.array(self.matrix)</text>
<text text-anchor="middle" x="1963.5" y="-501.3" font-family="DejaVu Sans Mono" font-size="14.00">result[:] *= self.scalar</text>
</g>
<!-- 23 -->
<g id="node22" class="node">
<title>23</title>
<polygon fill="#e552ff" stroke="#e552ff" points="1882,-152 1811,-152 1811,-156 1799,-156 1799,-116 1882,-116 1882,-152"/>
<polyline fill="none" stroke="#e552ff" points="1799,-152 1811,-152 "/>
<text text-anchor="middle" x="1840.5" y="-130.3" font-family="DejaVu Sans Mono" font-size="14.00">np.array</text>
</g>
<!-- 22&#45;&gt;23 -->
<g id="edge16" class="edge">
<title>22&#45;&gt;23</title>
<path fill="none" stroke="black" stroke-dasharray="5,2" d="M1957.57,-493.34C1937.63,-432.3 1872.93,-234.28 1849.27,-161.85"/>
<polygon fill="black" stroke="black" points="1852.52,-160.53 1846.09,-152.11 1845.87,-162.7 1852.52,-160.53"/>
<text text-anchor="middle" x="1876.5" y="-171.8" font-family="DejaVu Sans Mono" font-size="14.00">calls</text>
</g>
<!-- 24 -->
<g id="node23" class="node">
<title>24</title>
<polygon fill="#98fb98" stroke="black" points="2136.83,-152 1948.59,-152 1900.17,-116 2088.41,-116 2136.83,-152"/>
<text text-anchor="middle" x="2018.5" y="-130.3" font-family="DejaVu Sans Mono" font-size="14.00">return result</text>
</g>
<!-- 22&#45;&gt;24 -->
<g id="edge17" class="edge">
<title>22&#45;&gt;24</title>
<path fill="none" stroke="black" d="M1966.15,-493.34C1975.05,-432.42 2003.88,-235.09 2014.51,-162.3"/>
<polygon fill="black" stroke="black" points="2018.02,-162.51 2016,-152.11 2011.09,-161.5 2018.02,-162.51"/>
</g>
<!-- 28 -->
<g id="node24" class="node">
<title>28</title>
<polygon fill="#fffb81" stroke="black" points="1726.5,-531.5 1462.5,-531.5 1462.5,-493.5 1726.5,-493.5 1726.5,-531.5"/>
<text text-anchor="start" x="1470.5" y="-516.3" font-family="DejaVu Sans Mono" font-size="14.00">result = np.array(self.matrix)</text>
<text text-anchor="middle" x="1594.5" y="-501.3" font-family="DejaVu Sans Mono" font-size="14.00">result = result / self.scalar</text>
</g>
<!-- 29 -->
<g id="node25" class="node">
<title>29</title>
<polygon fill="#e552ff" stroke="#e552ff" points="1512,-152 1441,-152 1441,-156 1429,-156 1429,-116 1512,-116 1512,-152"/>
<polyline fill="none" stroke="#e552ff" points="1429,-152 1441,-152 "/>
<text text-anchor="middle" x="1470.5" y="-130.3" font-family="DejaVu Sans Mono" font-size="14.00">np.array</text>
</g>
<!-- 28&#45;&gt;29 -->
<g id="edge18" class="edge">
<title>28&#45;&gt;29</title>
<path fill="none" stroke="black" stroke-dasharray="5,2" d="M1588.52,-493.34C1568.42,-432.3 1503.2,-234.28 1479.34,-161.85"/>
<polygon fill="black" stroke="black" points="1482.59,-160.51 1476.13,-152.11 1475.94,-162.7 1482.59,-160.51"/>
<text text-anchor="middle" x="1506.5" y="-171.8" font-family="DejaVu Sans Mono" font-size="14.00">calls</text>
</g>
<!-- 30 -->
<g id="node26" class="node">
<title>30</title>
<polygon fill="#98fb98" stroke="black" points="1766.83,-152 1578.59,-152 1530.17,-116 1718.41,-116 1766.83,-152"/>
<text text-anchor="middle" x="1648.5" y="-130.3" font-family="DejaVu Sans Mono" font-size="14.00">return result</text>
</g>
<!-- 28&#45;&gt;30 -->
<g id="edge19" class="edge">
<title>28&#45;&gt;30</title>
<path fill="none" stroke="black" d="M1597.1,-493.34C1605.84,-432.42 1634.14,-235.09 1644.58,-162.3"/>
<polygon fill="black" stroke="black" points="1648.09,-162.5 1646.05,-152.11 1641.16,-161.51 1648.09,-162.5"/>
</g>
<!-- input -->
<g id="node27" class="node">
<title>input</title>
<polygon fill="#afeeee" stroke="black" points="3569.54,-152 3481.98,-152 3459.46,-116 3547.02,-116 3569.54,-152"/>
<text text-anchor="middle" x="3514.5" y="-130.3" font-family="DejaVu Sans Mono" font-size="14.00">input</text>
</g>
<!-- call -->
<g id="node32" class="node">
<title>call</title>
<polygon fill="#e552ff" stroke="black" points="3541.5,-75 3499.5,-75 3499.5,-79 3487.5,-79 3487.5,-39 3541.5,-39 3541.5,-75"/>
<polyline fill="none" stroke="black" points="3487.5,-75 3499.5,-75 "/>
<text text-anchor="middle" x="3514.5" y="-53.3" font-family="DejaVu Sans Mono" font-size="14.00">call</text>
</g>
<!-- input&#45;&gt;call -->
<!-- default -->
<g id="node28" class="node">
<title>default</title>
<polygon fill="#fffb81" stroke="black" points="3415.5,-75 3341.5,-75 3341.5,-39 3415.5,-39 3415.5,-75"/>
<text text-anchor="middle" x="3378.5" y="-53.3" font-family="DejaVu Sans Mono" font-size="14.00">default</text>
</g>
<!-- if -->
<g id="node29" class="node">
<title>if</title>
<polygon fill="#ff6752" stroke="black" points="3514.5,-530.5 3484.33,-512.5 3514.5,-494.5 3544.67,-512.5 3514.5,-530.5"/>
<text text-anchor="middle" x="3514.5" y="-508.8" font-family="DejaVu Sans Mono" font-size="14.00">if</text>
</g>
<!-- if&#45;&gt;input -->
<!-- for -->
<g id="node30" class="node">
<title>for</title>
<polygon fill="#ffbe52" stroke="black" points="3465.04,-512.5 3449.77,-530.5 3419.23,-530.5 3403.96,-512.5 3419.23,-494.5 3449.77,-494.5 3465.04,-512.5"/>
<text text-anchor="middle" x="3434.5" y="-508.8" font-family="DejaVu Sans Mono" font-size="14.00">for</text>
</g>
<!-- return -->
<g id="node33" class="node">
<title>return</title>
<polygon fill="#98fb98" stroke="black" points="3441.29,-152 3341.41,-152 3315.71,-116 3415.59,-116 3441.29,-152"/>
<text text-anchor="middle" x="3378.5" y="-130.3" font-family="DejaVu Sans Mono" font-size="14.00">return</text>
</g>
<!-- for&#45;&gt;return -->
<!-- while -->
<g id="node31" class="node">
<title>while</title>
<polygon fill="#ffbe52" stroke="black" points="3386.06,-512.5 3364.28,-530.5 3320.72,-530.5 3298.94,-512.5 3320.72,-494.5 3364.28,-494.5 3386.06,-512.5"/>
<text text-anchor="middle" x="3342.5" y="-508.8" font-family="DejaVu Sans Mono" font-size="14.00">while</text>
</g>
<!-- return&#45;&gt;default -->
<!-- try -->
<g id="node34" class="node">
<title>try</title>
<polygon fill="orange" stroke="black" points="3243.5,-530.5 3205.63,-512.5 3243.5,-494.5 3281.37,-512.5 3243.5,-530.5"/>
<polyline fill="none" stroke="black" points="3216.47,-517.65 3216.47,-507.35 "/>
<polyline fill="none" stroke="black" points="3232.66,-499.65 3254.34,-499.65 "/>
<polyline fill="none" stroke="black" points="3270.53,-507.35 3270.53,-517.65 "/>
<polyline fill="none" stroke="black" points="3254.34,-525.35 3232.66,-525.35 "/>
<text text-anchor="middle" x="3243.5" y="-508.8" font-family="DejaVu Sans Mono" font-size="14.00">try</text>
</g>
<!-- raise -->
<g id="node35" class="node">
<title>raise</title>
<polygon fill="#98fb98" stroke="black" points="3298.19,-139.56 3251.5,-152 3204.81,-139.56 3204.85,-119.44 3298.15,-119.44 3298.19,-139.56"/>
<text text-anchor="middle" x="3251.5" y="-130.3" font-family="DejaVu Sans Mono" font-size="14.00">raise</text>
</g>
<!-- try&#45;&gt;raise -->
</g>
</svg>
