<?xml version="1.0" encoding="UTF-8" standalone="no"?>
<!DOCTYPE svg PUBLIC "-//W3C//DTD SVG 1.1//EN"
 "http://www.w3.org/Graphics/SVG/1.1/DTD/svg11.dtd">
<!-- Generated by graphviz version 2.43.0 (0)
 -->
<!-- Title: cluster0matrix_ops.py Pages: 1 -->
<svg width="1793pt" height="515pt"
 viewBox="0.00 0.00 1792.50 515.00" xmlns="http://www.w3.org/2000/svg" xmlns:xlink="http://www.w3.org/1999/xlink">
<g id="graph0" class="graph" transform="scale(1 1) rotate(0) translate(4 511)">
<title>cluster0matrix_ops.py</title>
<polygon fill="white" stroke="transparent" points="-4,4 -4,-511 1788.5,-511 1788.5,4 -4,4"/>
<text text-anchor="middle" x="892.25" y="-7.8" font-family="DejaVu Sans Mono" font-size="14.00">matrix_ops.py</text>
<g id="clust1" class="cluster">
<title>cluster_1</title>
<polygon fill="purple" stroke="purple" points="127.5,-333 127.5,-385 235.5,-385 235.5,-333 127.5,-333"/>
</g>
<g id="clust2" class="cluster">
<title>cluster0transpose</title>
<polygon fill="none" stroke="black" points="371.5,-31 371.5,-499 1387.5,-499 1387.5,-31 371.5,-31"/>
<text text-anchor="middle" x="879.5" y="-483.8" font-family="DejaVu Sans Mono" font-size="14.00">transpose</text>
</g>
<g id="clust3" class="cluster">
<title>cluster_3</title>
<polygon fill="purple" stroke="purple" points="428.5,-258 428.5,-385 570.5,-385 570.5,-258 428.5,-258"/>
</g>
<g id="clust4" class="cluster">
<title>cluster_9</title>
<polygon fill="purple" stroke="purple" points="379.5,-100 379.5,-227 453.5,-227 453.5,-100 379.5,-100"/>
</g>
<g id="clust5" class="cluster">
<title>cluster_14</title>
<polygon fill="purple" stroke="purple" points="908.5,-39 908.5,-152 982.5,-152 982.5,-39 908.5,-39"/>
</g>
<g id="clust6" class="cluster">
<title>cluster_KEY</title>
<polygon fill="none" stroke="black" points="1395.5,-258 1395.5,-499 1776.5,-499 1776.5,-258 1395.5,-258"/>
<text text-anchor="middle" x="1586" y="-483.8" font-family="DejaVu Sans Mono" font-size="14.00">KEY</text>
</g>
<!-- 1 -->
<g id="node1" class="node">
<title>1</title>
<polygon fill="#fffb81" stroke="black" points="363,-484 0,-484 0,-416 363,-416 363,-484"/>
<text text-anchor="start" x="8" y="-468.8" font-family="DejaVu Sans Mono" font-size="14.00">import numpy as np</text>
<text text-anchor="start" x="8" y="-453.8" font-family="DejaVu Sans Mono" font-size="14.00">def transpose(matrix):...</text>
<text text-anchor="start" x="8" y="-438.8" font-family="DejaVu Sans Mono" font-size="14.00">matrix = [[1, 2, 3], [4, 5, 6], [7, 8, 9]]</text>
<text text-anchor="middle" x="181.5" y="-423.8" font-family="DejaVu Sans Mono" font-size="14.00">transpose(matrix)</text>
</g>
<!-- 22 -->
<g id="node2" class="node">
<title>22</title>
<polygon fill="#e552ff" stroke="#e552ff" points="227,-377 148,-377 148,-381 136,-381 136,-341 227,-341 227,-377"/>
<polyline fill="none" stroke="#e552ff" points="136,-377 148,-377 "/>
<text text-anchor="middle" x="181.5" y="-355.3" font-family="DejaVu Sans Mono" font-size="14.00">transpose</text>
</g>
<!-- 1&#45;&gt;22 -->
<g id="edge1" class="edge">
<title>1&#45;&gt;22</title>
<path fill="none" stroke="black" stroke-dasharray="5,2" d="M181.5,-415.86C181.5,-406.58 181.5,-396.6 181.5,-387.68"/>
<polygon fill="black" stroke="black" points="185,-387.44 181.5,-377.44 178,-387.44 185,-387.44"/>
<text text-anchor="middle" x="202.5" y="-396.8" font-family="DejaVu Sans Mono" font-size="14.00">calls</text>
</g>
<!-- 3 -->
<g id="node3" class="node">
<title>3</title>
<polygon fill="#fffb81" stroke="black" points="794,-468 381,-468 381,-432 794,-432 794,-468"/>
<text text-anchor="middle" x="587.5" y="-446.3" font-family="DejaVu Sans Mono" font-size="14.00">result = np.zeros((len(matrix[0]), len(matrix)))</text>
</g>
<!-- 4 -->
<g id="node4" class="node">
<title>4</title>
<polygon fill="#e552ff" stroke="#e552ff" points="562,-377 491,-377 491,-381 479,-381 479,-341 562,-341 562,-377"/>
<polyline fill="none" stroke="#e552ff" points="479,-377 491,-377 "/>
<text text-anchor="middle" x="520.5" y="-355.3" font-family="DejaVu Sans Mono" font-size="14.00">np.zeros</text>
</g>
<!-- 3&#45;&gt;4 -->
<g id="edge2" class="edge">
<title>3&#45;&gt;4</title>
<path fill="none" stroke="black" stroke-dasharray="5,2" d="M574.58,-431.84C564.66,-418.67 550.82,-400.27 539.62,-385.39"/>
<polygon fill="black" stroke="black" points="542.19,-382.99 533.38,-377.11 536.6,-387.2 542.19,-382.99"/>
<text text-anchor="middle" x="576.5" y="-396.8" font-family="DejaVu Sans Mono" font-size="14.00">calls</text>
</g>
<!-- 7 -->
<g id="node7" class="node">
<title>7</title>
<polygon fill="#ff6752" stroke="black" points="766.5,-377 614.68,-359 766.5,-341 918.32,-359 766.5,-377"/>
<text text-anchor="middle" x="766.5" y="-355.3" font-family="DejaVu Sans Mono" font-size="14.00">if matrix == [[]]:</text>
</g>
<!-- 3&#45;&gt;7 -->
<g id="edge17" class="edge">
<title>3&#45;&gt;7</title>
<path fill="none" stroke="black" d="M622.01,-431.84C652.86,-416.5 697.92,-394.1 729.5,-378.4"/>
<polygon fill="black" stroke="black" points="731.44,-381.34 738.84,-373.75 728.33,-375.07 731.44,-381.34"/>
</g>
<!-- 5 -->
<g id="node5" class="node">
<title>5</title>
<polygon fill="#e552ff" stroke="#e552ff" points="490.5,-302 448.5,-302 448.5,-306 436.5,-306 436.5,-266 490.5,-266 490.5,-302"/>
<polyline fill="none" stroke="#e552ff" points="436.5,-302 448.5,-302 "/>
<text text-anchor="middle" x="463.5" y="-280.3" font-family="DejaVu Sans Mono" font-size="14.00">len</text>
</g>
<!-- 4&#45;&gt;5 -->
<g id="edge3" class="edge">
<title>4&#45;&gt;5</title>
<path fill="none" stroke="black" d="M506.99,-340.7C499.89,-331.61 491.06,-320.3 483.21,-310.25"/>
<polygon fill="black" stroke="black" points="485.82,-307.9 476.91,-302.18 480.31,-312.21 485.82,-307.9"/>
</g>
<!-- 6 -->
<g id="node6" class="node">
<title>6</title>
<polygon fill="#e552ff" stroke="#e552ff" points="562.5,-302 520.5,-302 520.5,-306 508.5,-306 508.5,-266 562.5,-266 562.5,-302"/>
<polyline fill="none" stroke="#e552ff" points="508.5,-302 520.5,-302 "/>
<text text-anchor="middle" x="535.5" y="-280.3" font-family="DejaVu Sans Mono" font-size="14.00">len</text>
</g>
<!-- 4&#45;&gt;6 -->
<g id="edge4" class="edge">
<title>4&#45;&gt;6</title>
<path fill="none" stroke="black" d="M524.05,-340.7C525.81,-332.15 527.97,-321.65 529.94,-312.07"/>
<polygon fill="black" stroke="black" points="533.39,-312.68 531.97,-302.18 526.53,-311.27 533.39,-312.68"/>
</g>
<!-- 8 -->
<g id="node8" class="node">
<title>8</title>
<polygon fill="#fffb81" stroke="black" points="1208.5,-302 1084.5,-302 1084.5,-266 1208.5,-266 1208.5,-302"/>
<text text-anchor="middle" x="1146.5" y="-280.3" font-family="DejaVu Sans Mono" font-size="14.00">result = [[]]</text>
</g>
<!-- 7&#45;&gt;8 -->
<g id="edge6" class="edge">
<title>7&#45;&gt;8</title>
<path fill="none" stroke="green" d="M821.35,-347.46C887.99,-334.66 1000.63,-313.02 1074.28,-298.87"/>
<polygon fill="green" stroke="green" points="1075.25,-302.25 1084.41,-296.93 1073.93,-295.38 1075.25,-302.25"/>
<text text-anchor="middle" x="1070.5" y="-313.8" font-family="DejaVu Sans Mono" font-size="14.00">matrix == [[]]</text>
</g>
<!-- 9 -->
<g id="node10" class="node">
<title>9</title>
<polygon fill="#ffbe52" stroke="black" points="952.74,-284 859.62,-302 673.38,-302 580.26,-284 673.38,-266 859.62,-266 952.74,-284"/>
<text text-anchor="middle" x="766.5" y="-280.3" font-family="DejaVu Sans Mono" font-size="14.00">for i in range(len(matrix)):</text>
</g>
<!-- 7&#45;&gt;9 -->
<g id="edge16" class="edge">
<title>7&#45;&gt;9</title>
<path fill="none" stroke="red" d="M766.5,-340.7C766.5,-332.25 766.5,-321.87 766.5,-312.37"/>
<polygon fill="red" stroke="red" points="770,-312.18 766.5,-302.18 763,-312.18 770,-312.18"/>
<text text-anchor="middle" x="833" y="-313.8" font-family="DejaVu Sans Mono" font-size="14.00">(matrix != [[]])</text>
</g>
<!-- 10 -->
<g id="node9" class="node">
<title>10</title>
<polygon fill="#98fb98" stroke="black" points="1379.83,-219 1191.59,-219 1143.17,-183 1331.41,-183 1379.83,-219"/>
<text text-anchor="middle" x="1261.5" y="-197.3" font-family="DejaVu Sans Mono" font-size="14.00">return result</text>
</g>
<!-- 8&#45;&gt;10 -->
<g id="edge5" class="edge">
<title>8&#45;&gt;10</title>
<path fill="none" stroke="black" d="M1170.89,-265.82C1187.66,-254.01 1210.13,-238.18 1228.5,-225.24"/>
<polygon fill="black" stroke="black" points="1230.99,-227.77 1237.15,-219.15 1226.96,-222.05 1230.99,-227.77"/>
</g>
<!-- 12 -->
<g id="node11" class="node">
<title>12</title>
<polygon fill="#e552ff" stroke="#e552ff" points="445.5,-219 399.5,-219 399.5,-223 387.5,-223 387.5,-183 445.5,-183 445.5,-219"/>
<polyline fill="none" stroke="#e552ff" points="387.5,-219 399.5,-219 "/>
<text text-anchor="middle" x="416.5" y="-197.3" font-family="DejaVu Sans Mono" font-size="14.00">range</text>
</g>
<!-- 9&#45;&gt;12 -->
<g id="edge7" class="edge">
<title>9&#45;&gt;12</title>
<path fill="none" stroke="black" stroke-dasharray="5,2" d="M656.74,-269.19C580.41,-258.53 486.06,-242.96 449.5,-227 447.91,-226.31 446.34,-225.53 444.78,-224.68"/>
<polygon fill="black" stroke="black" points="446.47,-221.6 436.14,-219.23 442.73,-227.52 446.47,-221.6"/>
<text text-anchor="middle" x="551.5" y="-238.8" font-family="DejaVu Sans Mono" font-size="14.00">calls</text>
</g>
<!-- 14 -->
<g id="node13" class="node">
<title>14</title>
<polygon fill="#ffbe52" stroke="black" points="1125.77,-201 1023.63,-219 819.37,-219 717.23,-201 819.37,-183 1023.63,-183 1125.77,-201"/>
<text text-anchor="middle" x="921.5" y="-197.3" font-family="DejaVu Sans Mono" font-size="14.00">for j in range(len(matrix[0])):</text>
</g>
<!-- 9&#45;&gt;14 -->
<g id="edge14" class="edge">
<title>9&#45;&gt;14</title>
<path fill="none" stroke="green" d="M760.06,-265.68C757.53,-255.67 756.65,-243.42 763.5,-235 768.76,-228.53 780.1,-223.29 794.41,-219.05"/>
<polygon fill="green" stroke="green" points="795.47,-222.39 804.21,-216.41 793.65,-215.63 795.47,-222.39"/>
<text text-anchor="middle" x="838" y="-238.8" font-family="DejaVu Sans Mono" font-size="14.00">range(len(matrix))</text>
</g>
<!-- 15 -->
<g id="node17" class="node">
<title>15</title>
<polygon fill="#98fb98" stroke="black" points="699.83,-219 511.59,-219 463.17,-183 651.41,-183 699.83,-219"/>
<text text-anchor="middle" x="581.5" y="-197.3" font-family="DejaVu Sans Mono" font-size="14.00">return result</text>
</g>
<!-- 9&#45;&gt;15 -->
<g id="edge15" class="edge">
<title>9&#45;&gt;15</title>
<path fill="none" stroke="green" d="M727.27,-265.82C698.84,-253.38 660.24,-236.47 629.9,-223.19"/>
<polygon fill="green" stroke="green" points="630.92,-219.82 620.36,-219.01 628.12,-226.23 630.92,-219.82"/>
</g>
<!-- 13 -->
<g id="node12" class="node">
<title>13</title>
<polygon fill="#e552ff" stroke="#e552ff" points="443.5,-144 401.5,-144 401.5,-148 389.5,-148 389.5,-108 443.5,-108 443.5,-144"/>
<polyline fill="none" stroke="#e552ff" points="389.5,-144 401.5,-144 "/>
<text text-anchor="middle" x="416.5" y="-122.3" font-family="DejaVu Sans Mono" font-size="14.00">len</text>
</g>
<!-- 12&#45;&gt;13 -->
<g id="edge8" class="edge">
<title>12&#45;&gt;13</title>
<path fill="none" stroke="black" d="M416.5,-182.7C416.5,-174.25 416.5,-163.87 416.5,-154.37"/>
<polygon fill="black" stroke="black" points="420,-154.18 416.5,-144.18 413,-154.18 420,-154.18"/>
</g>
<!-- 14&#45;&gt;9 -->
<g id="edge13" class="edge">
<title>14&#45;&gt;9</title>
<path fill="none" stroke="green" d="M924.3,-219.07C924.97,-229.25 923.87,-241.75 916.5,-250 910.76,-256.42 898.37,-261.71 883.05,-266.01"/>
<polygon fill="green" stroke="green" points="881.97,-262.68 873.16,-268.57 883.72,-269.46 881.97,-262.68"/>
</g>
<!-- 16 -->
<g id="node14" class="node">
<title>16</title>
<polygon fill="#e552ff" stroke="#e552ff" points="974.5,-144 928.5,-144 928.5,-148 916.5,-148 916.5,-108 974.5,-108 974.5,-144"/>
<polyline fill="none" stroke="#e552ff" points="916.5,-144 928.5,-144 "/>
<text text-anchor="middle" x="945.5" y="-122.3" font-family="DejaVu Sans Mono" font-size="14.00">range</text>
</g>
<!-- 14&#45;&gt;16 -->
<g id="edge9" class="edge">
<title>14&#45;&gt;16</title>
<path fill="none" stroke="black" stroke-dasharray="5,2" d="M927.19,-182.7C930.03,-174.06 933.53,-163.42 936.7,-153.76"/>
<polygon fill="black" stroke="black" points="940.05,-154.77 939.85,-144.18 933.4,-152.58 940.05,-154.77"/>
<text text-anchor="middle" x="954.5" y="-163.8" font-family="DejaVu Sans Mono" font-size="14.00">calls</text>
</g>
<!-- 18 -->
<g id="node16" class="node">
<title>18</title>
<polygon fill="#fffb81" stroke="black" points="880,-144 641,-144 641,-108 880,-108 880,-144"/>
<text text-anchor="middle" x="760.5" y="-122.3" font-family="DejaVu Sans Mono" font-size="14.00">result[j][i] = matrix[i][j]</text>
</g>
<!-- 14&#45;&gt;18 -->
<g id="edge12" class="edge">
<title>14&#45;&gt;18</title>
<path fill="none" stroke="green" d="M773.81,-190.94C757.57,-187.21 744.67,-182.07 738.5,-175 732.95,-168.65 734.24,-160.66 738.15,-153.03"/>
<polygon fill="green" stroke="green" points="741.26,-154.68 743.71,-144.37 735.37,-150.9 741.26,-154.68"/>
<text text-anchor="middle" x="825.5" y="-163.8" font-family="DejaVu Sans Mono" font-size="14.00">range(len(matrix[0]))</text>
</g>
<!-- 17 -->
<g id="node15" class="node">
<title>17</title>
<polygon fill="#e552ff" stroke="#e552ff" points="972.5,-83 930.5,-83 930.5,-87 918.5,-87 918.5,-47 972.5,-47 972.5,-83"/>
<polyline fill="none" stroke="#e552ff" points="918.5,-83 930.5,-83 "/>
<text text-anchor="middle" x="945.5" y="-61.3" font-family="DejaVu Sans Mono" font-size="14.00">len</text>
</g>
<!-- 16&#45;&gt;17 -->
<g id="edge10" class="edge">
<title>16&#45;&gt;17</title>
<path fill="none" stroke="black" d="M945.5,-107.93C945.5,-103.45 945.5,-98.49 945.5,-93.61"/>
<polygon fill="black" stroke="black" points="949,-93.23 945.5,-83.23 942,-93.23 949,-93.23"/>
</g>
<!-- 18&#45;&gt;14 -->
<g id="edge11" class="edge">
<title>18&#45;&gt;14</title>
<path fill="none" stroke="black" d="M863.14,-144.08C889.66,-149.43 912.07,-155.19 916.5,-160 919.73,-163.51 921.6,-168 922.59,-172.68"/>
<polygon fill="black" stroke="black" points="919.14,-173.34 923.58,-182.96 926.11,-172.67 919.14,-173.34"/>
</g>
<!-- input -->
<g id="node18" class="node">
<title>input</title>
<polygon fill="#afeeee" stroke="black" points="1768.54,-377 1680.98,-377 1658.46,-341 1746.02,-341 1768.54,-377"/>
<text text-anchor="middle" x="1713.5" y="-355.3" font-family="DejaVu Sans Mono" font-size="14.00">input</text>
</g>
<!-- call -->
<g id="node23" class="node">
<title>call</title>
<polygon fill="#e552ff" stroke="black" points="1740.5,-302 1698.5,-302 1698.5,-306 1686.5,-306 1686.5,-266 1740.5,-266 1740.5,-302"/>
<polyline fill="none" stroke="black" points="1686.5,-302 1698.5,-302 "/>
<text text-anchor="middle" x="1713.5" y="-280.3" font-family="DejaVu Sans Mono" font-size="14.00">call</text>
</g>
<!-- input&#45;&gt;call -->
<!-- default -->
<g id="node19" class="node">
<title>default</title>
<polygon fill="#fffb81" stroke="black" points="1614.5,-302 1540.5,-302 1540.5,-266 1614.5,-266 1614.5,-302"/>
<text text-anchor="middle" x="1577.5" y="-280.3" font-family="DejaVu Sans Mono" font-size="14.00">default</text>
</g>
<!-- if -->
<g id="node20" class="node">
<title>if</title>
<polygon fill="#ff6752" stroke="black" points="1713.5,-468 1683.33,-450 1713.5,-432 1743.67,-450 1713.5,-468"/>
<text text-anchor="middle" x="1713.5" y="-446.3" font-family="DejaVu Sans Mono" font-size="14.00">if</text>
</g>
<!-- if&#45;&gt;input -->
<!-- for -->
<g id="node21" class="node">
<title>for</title>
<polygon fill="#ffbe52" stroke="black" points="1664.04,-450 1648.77,-468 1618.23,-468 1602.96,-450 1618.23,-432 1648.77,-432 1664.04,-450"/>
<text text-anchor="middle" x="1633.5" y="-446.3" font-family="DejaVu Sans Mono" font-size="14.00">for</text>
</g>
<!-- return -->
<g id="node24" class="node">
<title>return</title>
<polygon fill="#98fb98" stroke="black" points="1640.29,-377 1540.41,-377 1514.71,-341 1614.59,-341 1640.29,-377"/>
<text text-anchor="middle" x="1577.5" y="-355.3" font-family="DejaVu Sans Mono" font-size="14.00">return</text>
</g>
<!-- for&#45;&gt;return -->
<!-- while -->
<g id="node22" class="node">
<title>while</title>
<polygon fill="#ffbe52" stroke="black" points="1585.06,-450 1563.28,-468 1519.72,-468 1497.94,-450 1519.72,-432 1563.28,-432 1585.06,-450"/>
<text text-anchor="middle" x="1541.5" y="-446.3" font-family="DejaVu Sans Mono" font-size="14.00">while</text>
</g>
<!-- return&#45;&gt;default -->
<!-- try -->
<g id="node25" class="node">
<title>try</title>
<polygon fill="orange" stroke="black" points="1442.5,-468 1404.63,-450 1442.5,-432 1480.37,-450 1442.5,-468"/>
<polyline fill="none" stroke="black" points="1415.47,-455.15 1415.47,-444.85 "/>
<polyline fill="none" stroke="black" points="1431.66,-437.15 1453.34,-437.15 "/>
<polyline fill="none" stroke="black" points="1469.53,-444.85 1469.53,-455.15 "/>
<polyline fill="none" stroke="black" points="1453.34,-462.85 1431.66,-462.85 "/>
<text text-anchor="middle" x="1442.5" y="-446.3" font-family="DejaVu Sans Mono" font-size="14.00">try</text>
</g>
<!-- raise -->
<g id="node26" class="node">
<title>raise</title>
<polygon fill="#98fb98" stroke="black" points="1497.19,-364.56 1450.5,-377 1403.81,-364.56 1403.85,-344.44 1497.15,-344.44 1497.19,-364.56"/>
<text text-anchor="middle" x="1450.5" y="-355.3" font-family="DejaVu Sans Mono" font-size="14.00">raise</text>
</g>
<!-- try&#45;&gt;raise -->
</g>
</svg>
